<?xml version="1.0" encoding="utf-8"?>
<!-- Generator: Adobe Illustrator 24.0.2, SVG Export Plug-In . SVG Version: 6.00 Build 0)  -->
<svg version="1.1" id="Capa_1" xmlns="http://www.w3.org/2000/svg" xmlns:xlink="http://www.w3.org/1999/xlink" x="0px" y="0px"
	 viewBox="0 0 2140 2140" style="enable-background:new 0 0 2140 2140;" xml:space="preserve">
<style type="text/css">
	.st0{fill:#7D8582;}
	.st1{fill:#7AB92B;}
	.st2{fill:#020303;}
	.st3{clip-path:url(#SVGID_2_);fill:none;stroke:#76B72F;stroke-width:8;stroke-linecap:round;stroke-miterlimit:10;}
	.st4{fill:url(#SVGID_3_);}
	.st5{opacity:0.7;}
	.st6{clip-path:url(#SVGID_5_);}
	.st7{display:none;}
	.st8{display:inline;}
	.st9{fill:#C5C3C3;stroke:url(#SVGID_6_);stroke-miterlimit:10;}
	.st10{fill:#C5C3C3;stroke:url(#SVGID_7_);stroke-miterlimit:10;}
	.st11{fill:#C5C3C3;stroke:url(#SVGID_8_);stroke-miterlimit:10;}
	.st12{fill:#C5C3C3;stroke:url(#SVGID_9_);stroke-miterlimit:10;}
	.st13{fill:#C5C3C3;stroke:url(#SVGID_10_);stroke-miterlimit:10;}
	.st14{fill:#C5C3C3;stroke:url(#SVGID_11_);stroke-miterlimit:10;}
	.st15{fill:#C5C3C3;stroke:url(#SVGID_12_);stroke-miterlimit:10;}
	.st16{fill:#C5C3C3;stroke:url(#SVGID_13_);stroke-miterlimit:10;}
	.st17{fill:#C5C3C3;stroke:url(#SVGID_14_);stroke-miterlimit:10;}
	.st18{fill:#C5C3C3;stroke:url(#SVGID_15_);stroke-miterlimit:10;}
	.st19{fill:#C5C3C3;stroke:url(#SVGID_16_);stroke-miterlimit:10;}
	.st20{fill:#C5C3C3;stroke:url(#SVGID_17_);stroke-miterlimit:10;}
	.st21{fill:#C5C3C3;stroke:url(#SVGID_18_);stroke-miterlimit:10;}
	.st22{fill:#C5C3C3;stroke:url(#SVGID_19_);stroke-miterlimit:10;}
	.st23{fill:#C5C3C3;stroke:url(#SVGID_20_);stroke-miterlimit:10;}
	.st24{fill:#C5C3C3;stroke:url(#SVGID_21_);stroke-miterlimit:10;}
	.st25{fill:#C5C3C3;stroke:url(#SVGID_22_);stroke-miterlimit:10;}
	.st26{fill:#C5C3C3;stroke:url(#SVGID_23_);stroke-miterlimit:10;}
	.st27{fill:#C5C3C3;stroke:url(#SVGID_24_);stroke-miterlimit:10;}
	.st28{fill:#C5C3C3;stroke:url(#SVGID_25_);stroke-miterlimit:10;}
	.st29{fill:#C5C3C3;stroke:url(#SVGID_26_);stroke-miterlimit:10;}
	.st30{fill:#C5C3C3;stroke:url(#SVGID_27_);stroke-miterlimit:10;}
	.st31{fill:#C5C3C3;stroke:url(#SVGID_28_);stroke-miterlimit:10;}
	.st32{fill:#C5C3C3;stroke:url(#SVGID_29_);stroke-miterlimit:10;}
	.st33{fill:#C5C3C3;stroke:url(#SVGID_30_);stroke-miterlimit:10;}
	.st34{fill:#C5C3C3;stroke:url(#SVGID_31_);stroke-miterlimit:10;}
	.st35{fill:#C5C3C3;stroke:url(#SVGID_32_);stroke-miterlimit:10;}
	.st36{fill:#C5C3C3;stroke:url(#SVGID_33_);stroke-miterlimit:10;}
	.st37{fill:#C5C3C3;stroke:url(#SVGID_34_);stroke-miterlimit:10;}
	.st38{fill:#C5C3C3;stroke:url(#SVGID_35_);stroke-miterlimit:10;}
	.st39{fill:none;stroke:url(#SVGID_36_);stroke-width:4;stroke-miterlimit:10;}
	.st40{fill:none;stroke:url(#SVGID_37_);stroke-width:4;stroke-miterlimit:10;}
	.st41{fill:none;stroke:url(#SVGID_38_);stroke-width:4;stroke-miterlimit:10;}
	.st42{fill:none;stroke:url(#SVGID_39_);stroke-width:4;stroke-miterlimit:10;}
	.st43{fill:none;stroke:url(#SVGID_40_);stroke-width:4;stroke-miterlimit:10;}
	.st44{fill:none;stroke:url(#SVGID_41_);stroke-width:4;stroke-miterlimit:10;}
	.st45{fill:none;stroke:url(#SVGID_42_);stroke-width:4;stroke-miterlimit:10;}
	.st46{fill:none;stroke:url(#SVGID_43_);stroke-width:4;stroke-miterlimit:10;}
	.st47{fill:none;stroke:url(#SVGID_44_);stroke-width:4;stroke-miterlimit:10;}
	.st48{fill:none;stroke:url(#SVGID_45_);stroke-width:4;stroke-miterlimit:10;}
	.st49{fill:none;stroke:url(#SVGID_46_);stroke-width:4;stroke-miterlimit:10;}
	.st50{fill:none;stroke:url(#SVGID_47_);stroke-width:4;stroke-miterlimit:10;}
	.st51{fill:none;stroke:url(#SVGID_48_);stroke-width:4;stroke-miterlimit:10;}
	.st52{fill:#C5C3C3;stroke:url(#SVGID_49_);stroke-miterlimit:10;}
	.st53{fill:#211E20;stroke:url(#SVGID_50_);stroke-miterlimit:10;}
	.st54{fill:#C5C3C3;stroke:url(#SVGID_51_);stroke-miterlimit:10;}
	.st55{fill:#211E20;stroke:url(#SVGID_52_);stroke-miterlimit:10;}
	.st56{fill:#C5C3C3;stroke:url(#SVGID_53_);stroke-miterlimit:10;}
	.st57{fill:#211E20;stroke:url(#SVGID_54_);stroke-miterlimit:10;}
	.st58{fill:url(#SVGID_55_);}
	.st59{fill:url(#SVGID_56_);}
	.st60{fill:#C5C3C3;stroke:url(#SVGID_57_);stroke-miterlimit:10;}
	.st61{fill:#211E20;stroke:url(#SVGID_58_);stroke-miterlimit:10;}
	.st62{fill:#C5C3C3;stroke:url(#SVGID_59_);stroke-miterlimit:10;}
	.st63{fill:#211E20;stroke:url(#SVGID_60_);stroke-miterlimit:10;}
	.st64{fill:#C5C3C3;stroke:url(#SVGID_61_);stroke-miterlimit:10;}
	.st65{fill:#211E20;stroke:url(#SVGID_62_);stroke-miterlimit:10;}
	.st66{fill:#211E20;stroke:url(#SVGID_63_);stroke-miterlimit:10;}
	.st67{fill:url(#SVGID_64_);}
	.st68{fill:url(#SVGID_65_);}
	.st69{fill:#C5C3C3;stroke:url(#SVGID_66_);stroke-miterlimit:10;}
	.st70{fill:#211E20;stroke:url(#SVGID_67_);stroke-miterlimit:10;}
	.st71{fill:#C5C3C3;stroke:url(#SVGID_68_);stroke-miterlimit:10;}
	.st72{fill:#211E20;stroke:url(#SVGID_69_);stroke-miterlimit:10;}
	.st73{fill:#C5C3C3;stroke:url(#SVGID_70_);stroke-miterlimit:10;}
	.st74{fill:#211E20;stroke:url(#SVGID_71_);stroke-miterlimit:10;}
	.st75{fill:#C5C3C3;stroke:url(#SVGID_72_);stroke-miterlimit:10;}
	.st76{fill:#211E20;stroke:url(#SVGID_73_);stroke-miterlimit:10;}
	.st77{fill:url(#SVGID_74_);}
	.st78{fill:url(#SVGID_75_);}
	.st79{fill:#C5C3C3;stroke:url(#SVGID_76_);stroke-miterlimit:10;}
	.st80{fill:#211E20;stroke:url(#SVGID_77_);stroke-miterlimit:10;}
	.st81{fill:url(#SVGID_78_);}
	.st82{opacity:0.8;}
	.st83{clip-path:url(#SVGID_80_);}
	.st84{fill:#FFFFFF;}
	.st85{fill:none;stroke:url(#SVGID_81_);stroke-width:4;stroke-miterlimit:10;}
	.st86{fill:none;stroke:url(#SVGID_82_);stroke-width:4;stroke-miterlimit:10;}
	.st87{fill:none;stroke:url(#SVGID_83_);stroke-width:4;stroke-miterlimit:10;}
	.st88{fill:none;stroke:url(#SVGID_84_);stroke-width:4;stroke-miterlimit:10;}
	.st89{fill:none;stroke:url(#SVGID_85_);stroke-width:4;stroke-miterlimit:10;}
	.st90{fill:none;stroke:url(#SVGID_86_);stroke-width:4;stroke-miterlimit:10;}
	.st91{fill:#C5C3C3;}
	.st92{fill:#211E20;}
	.st93{fill:url(#SVGID_87_);}
	.st94{fill:url(#SVGID_88_);}
</style>
<g>
	<g>
		<path class="st0" d="M122.36,1948.09c9.19-1.53,21.24-2.85,36.59-2.85c18.84,0,32.65,4.38,41.41,12.27
			c8.11,7.01,12.93,17.75,12.93,30.9c0,13.37-3.94,23.88-11.39,31.56c-10.08,10.74-26.53,16.21-45.15,16.21
			c-5.7,0-10.94-0.21-15.33-1.32v59.17h-19.06V1948.09z M141.41,2019.3c4.15,1.1,9.42,1.53,15.78,1.53
			c22.99,0,37.02-11.17,37.02-31.55c0-19.5-13.79-28.93-34.83-28.93c-8.33,0-14.69,0.65-17.96,1.53V2019.3z"/>
		<path class="st0" d="M293.79,1948.31c9.63-1.97,23.44-3.06,36.59-3.06c20.38,0,33.53,3.73,42.74,12.04
			c7.45,6.58,11.6,16.66,11.6,28.05c0,19.5-12.27,32.44-27.81,37.69v0.66c11.39,3.94,18.18,14.45,21.69,29.79
			c4.82,20.6,8.33,34.85,11.39,40.54h-19.72c-2.42-4.38-5.7-16.87-9.87-35.27c-4.37-20.38-12.27-28.05-29.57-28.71h-17.98v63.98
			h-19.06V1948.31z M312.84,2015.58h19.5c20.38,0,33.31-11.18,33.31-28.05c0-19.07-13.81-27.38-33.96-27.61
			c-9.21,0-15.78,0.88-18.86,1.76V2015.58z"/>
		<path class="st0" d="M593.43,2018.65c0,50.83-30.9,77.78-68.6,77.78c-39.01,0-66.39-30.24-66.39-74.94
			c0-46.89,29.14-77.57,68.6-77.57C567.35,1943.93,593.43,1974.82,593.43,2018.65z M478.82,2021.06c0,31.55,17.09,59.82,47.1,59.82
			c30.25,0,47.34-27.83,47.34-61.35c0-29.36-15.33-60.05-47.1-60.05C494.6,1959.48,478.82,1988.63,478.82,2021.06z"/>
		<path class="st0" d="M705.51,2094.03l-48.22-147.69h20.6l23.02,72.75c6.36,19.93,11.82,37.91,15.78,55.22h0.43
			c4.18-17.1,10.3-35.72,16.87-55l24.99-72.97h20.38l-52.82,147.69H705.51z"/>
		<path class="st0" d="M926.7,2024.79h-57.42v53.25h64v15.99h-83.05v-147.69h79.75v15.99h-60.7v46.67h57.42V2024.79z"/>
		<path class="st0" d="M1089.38,2024.79h-57.42v53.25h64v15.99h-83.05v-147.69h79.75v15.99h-60.7v46.67h57.42V2024.79z"/>
		<path class="st0" d="M1175.58,1948.31c11.6-1.74,25.41-3.06,40.53-3.06c27.41,0,46.91,6.35,59.82,18.4
			c13.15,12.05,20.83,29.14,20.83,53.03c0,24.1-7.45,43.82-21.26,57.4c-13.81,13.81-36.59,21.26-65.3,21.26
			c-13.57,0-24.99-0.66-34.62-1.76V1948.31z M1194.63,2078.91c4.84,0.88,11.84,1.09,19.29,1.09c40.77,0,62.88-22.79,62.88-62.67
			c0.24-34.85-19.5-56.97-59.82-56.97c-9.85,0-17.3,0.88-22.35,1.97V2078.91z"/>
		<path class="st0" d="M1502.62,2018.65c0,50.83-30.9,77.78-68.6,77.78c-39.01,0-66.39-30.24-66.39-74.94
			c0-46.89,29.14-77.57,68.6-77.57C1476.54,1943.93,1502.62,1974.82,1502.62,2018.65z M1388.01,2021.06
			c0,31.55,17.09,59.82,47.1,59.82c30.25,0,47.34-27.83,47.34-61.35c0-29.36-15.33-60.05-47.1-60.05
			C1403.79,1959.48,1388.01,1988.63,1388.01,2021.06z"/>
		<path class="st0" d="M1582.27,1948.31c9.63-1.97,23.44-3.06,36.59-3.06c20.38,0,33.53,3.73,42.74,12.04
			c7.45,6.58,11.6,16.66,11.6,28.05c0,19.5-12.27,32.44-27.81,37.69v0.66c11.39,3.94,18.18,14.45,21.69,29.79
			c4.82,20.6,8.33,34.85,11.39,40.54h-19.72c-2.42-4.38-5.7-16.87-9.87-35.27c-4.37-20.38-12.27-28.05-29.57-28.71h-17.98v63.98
			h-19.06V1948.31z M1601.32,2015.58h19.5c20.38,0,33.31-11.18,33.31-28.05c0-19.07-13.81-27.38-33.96-27.61
			c-9.21,0-15.78,0.88-18.86,1.76V2015.58z"/>
		<path class="st0" d="M1831.5,2024.79h-57.42v53.25h64v15.99h-83.05v-147.69h79.75v15.99h-60.7v46.67h57.42V2024.79z"/>
		<path class="st0" d="M1915.07,2070.8c8.54,5.27,21.05,9.65,34.19,9.65c19.5,0,30.9-10.3,30.9-25.2c0-13.81-7.9-21.69-27.83-29.36
			c-24.11-8.54-39.01-21.04-39.01-41.85c0-23.02,19.08-40.1,47.77-40.1c15.14,0,26.08,3.5,32.65,7.23l-5.25,15.57
			c-4.82-2.63-14.69-7.01-28.05-7.01c-20.17,0-27.83,12.04-27.83,22.13c0,13.81,8.99,20.6,29.35,28.49
			c24.99,9.65,37.7,21.69,37.7,43.39c0,22.79-16.87,42.72-51.73,42.72c-14.24,0-29.78-4.38-37.68-9.63L1915.07,2070.8z"/>
	</g>
</g>
<g>
	<g>
		<g>
			<g>
				<path class="st1" d="M122.36,1530.35c27.23-3.77,65.47-6.6,119.36-6.6c54.46,0,93.27,8.48,119.35,25.45
					c24.91,16.02,41.71,42.41,41.71,73.51c0,31.1-12.74,57.49-35.92,75.4c-30.13,23.09-74.74,33.46-126.88,33.46
					c-11.58,0-22.01-0.47-30.12-1.41v113.56h-87.49V1530.35z M209.84,1674.55c7.53,1.41,16.8,1.89,29.55,1.89
					c46.93,0,75.89-19.32,75.89-51.83c0-29.22-24.91-46.65-68.95-46.65c-17.96,0-30.12,1.41-36.5,2.83V1674.55z"/>
			</g>
		</g>
		<g>
			<g>
				<path class="st1" d="M547.65,1526.11v317.6h-88.64v-317.6H547.65z"/>
			</g>
		</g>
		<g>
			<g>
				<path class="st1" d="M624.14,1843.72v-317.6h103.13l81.11,116.39c23.18,33.46,46.35,73.04,63.73,108.85h1.74
					c-5.79-41.94-7.53-84.82-7.53-132.89v-92.35h81.11v317.6h-92.69L771.3,1721.2c-23.18-33.93-48.66-74.92-67.78-112.15l-1.74,0.47
					c2.32,41.94,3.47,86.7,3.47,138.54v95.66H624.14z"/>
			</g>
		</g>
		<g>
			<g>
				<path class="st2" d="M1023.94,1530.35c27.23-3.77,65.47-6.6,119.35-6.6c54.46,0,93.28,8.48,119.36,25.45
					c24.91,16.02,41.71,42.41,41.71,73.51c0,31.1-12.75,57.49-35.92,75.4c-30.13,23.09-74.74,33.46-126.88,33.46
					c-11.58,0-22.01-0.47-30.12-1.41v113.56h-87.49V1530.35z M1111.42,1674.55c7.53,1.41,16.8,1.89,29.55,1.89
					c46.93,0,75.89-19.32,75.89-51.83c0-29.22-24.91-46.65-68.95-46.65c-17.96,0-30.12,1.41-36.5,2.83V1674.55z"/>
			</g>
		</g>
		<g>
			<g>
				<path class="st2" d="M1448.65,1526.11v182.83c0,54.67,25.49,82.47,70.68,82.47c46.35,0,71.85-26.39,71.85-82.47v-182.83h88.06
					v178.12c0,98.02-60.84,144.67-162.8,144.67c-98.49,0-156.43-44.3-156.43-145.61v-177.18H1448.65z"/>
			</g>
		</g>
		<g>
			<g>
				<path class="st2" d="M1755.75,1526.11h88.64v257.29h155.27v60.32h-243.91V1526.11z"/>
			</g>
		</g>
	</g>
</g>
<g>
	<defs>
		<rect id="SVGID_1_" x="1114.74" y="650.14" width="352.9" height="602.39"/>
	</defs>
	<clipPath id="SVGID_2_">
		<use xlink:href="#SVGID_1_"  style="overflow:visible;"/>
	</clipPath>
	<path class="st3" d="M1102.83,1350.13c52.93-122.12,105.33-244.46,157.2-367.02c83.06-196.25,164.77-393.09,245.13-590.52"/>
</g>
<path class="st1" d="M1152.73,1160.54l-1.38-7L964.2,690.85L854.84,420.47l-13.2-32.41c-1.08-2.66-0.98-5.5,0.03-7.96
	c-8.58-53.58-0.57-200.8,306.98-301.42c-11.51-3.05-23.2-5.7-35.16-7.75c-209.26-35.94-408.36,97.5-457.19,301.04
	c-25.35,73.9-25.19,156.94,6.57,234.95l60.66,149L917,1231.14c14,42.13,50.15,75.39,96.96,83.43
	c67.68,11.62,131.96-33.82,143.59-101.49c0.2-1.16,0.25-2.31,0.42-3.47C1161.99,1193.48,1158.67,1177.23,1152.73,1160.54z"/>
<linearGradient id="SVGID_3_" gradientUnits="userSpaceOnUse" x1="1140.3104" y1="309.506" x2="1276.7133" y2="818.568">
	<stop  offset="0" style="stop-color:#020303"/>
	<stop  offset="0.0762" style="stop-color:#0C1114"/>
	<stop  offset="0.2283" style="stop-color:#202A2C"/>
	<stop  offset="0.3825" style="stop-color:#313F3F"/>
	<stop  offset="0.5367" style="stop-color:#3E514E"/>
	<stop  offset="0.6908" style="stop-color:#485E59"/>
	<stop  offset="0.8451" style="stop-color:#4E675F"/>
	<stop  offset="1" style="stop-color:#516962"/>
</linearGradient>
<path class="st4" d="M1380.04,245.27c-56.49,310.56-287.84,409.71-388,438.46c-3.91,1.15-7.73,2.22-11.4,3.13
	c-6.21,1.63-11.72,2.94-16.44,3.98l75.21,185.94c1.39-3.61,3.72-6.17,5.31-7.59c0.26-0.25,0.53-0.47,0.82-0.69
	c0.53-0.42,0.87-0.65,0.87-0.65s-0.34,0.23-0.87,0.65c1.01-0.77,2.15-1.41,3.45-1.78c0.47-0.13,1-0.31,1.48-0.45
	c189.7-2.06,356.78-139.08,390.04-332.72C1458.45,429.12,1434.12,327.25,1380.04,245.27z"/>
<path class="st2" d="M1380.04,245.27c-52.65-79.81-133.54-140.68-231.39-166.6C841.11,179.3,833.1,326.51,841.67,380.1
	c1.03-2.51,3.02-4.63,5.73-5.74l86.1-35.15c115.66-47.09,204.01-17.43,242.42,76.92c21.38,52.53,19.38,102.15-3.4,144.9
	c-2.29,4.8-6.66,12.62-14.46,22.59c-12.27,16.29-27.89,31.34-46.68,44.86c-9.11,6.98-19.51,14.23-31.33,21.65
	C1190.97,596.95,1336.78,483.1,1380.04,245.27z"/>
<g class="st5">
	<defs>
		<path id="SVGID_4_" class="st5" d="M1152.73,1160.54l-1.38-7L964.2,690.85L854.84,420.47l-13.2-32.41
			c-1.08-2.66-0.98-5.5,0.03-7.96c-8.58-53.58-0.57-200.8,306.98-301.42c-11.51-3.05-23.2-5.7-35.16-7.75
			c-209.26-35.94-408.36,97.5-457.19,301.04c-25.35,73.9-25.19,156.94,6.57,234.95l60.66,149L917,1231.14
			c14,42.13,50.15,75.39,96.96,83.43c67.68,11.62,131.96-33.82,143.59-101.49c0.2-1.16,0.25-2.31,0.42-3.47
			C1161.99,1193.48,1158.67,1177.23,1152.73,1160.54z"/>
	</defs>
	<clipPath id="SVGID_5_">
		<use xlink:href="#SVGID_4_"  style="overflow:visible;"/>
	</clipPath>
	<g class="st6">
		<g class="st7">
			<g id="triangle36_1152_" class="st8">
				<linearGradient id="SVGID_6_" gradientUnits="userSpaceOnUse" x1="247.1669" y1="1130.144" x2="412.035" y2="1130.144">
					<stop  offset="0" style="stop-color:#7F8382"/>
					<stop  offset="1" style="stop-color:#506A62"/>
				</linearGradient>
				<path class="st9" d="M273.64,1020.23l135.58,200.56l-74.13,19.62l-86.34-171.94l-1.01,1.95l86.09,171.43
					c0.19,0.38,0.61,0.57,1.02,0.46l76.04-20.12c0.28-0.07,0.5-0.28,0.6-0.55c0.1-0.27,0.07-0.57-0.1-0.81l-136.82-202.39
					L273.64,1020.23z"/>
			</g>
			<g id="triangle36_1151_" class="st8">
				<linearGradient id="SVGID_7_" gradientUnits="userSpaceOnUse" x1="273.0567" y1="1048.2267" x2="412.0349" y2="1048.2267">
					<stop  offset="0" style="stop-color:#7F8382"/>
					<stop  offset="1" style="stop-color:#506A62"/>
				</linearGradient>
				<path class="st10" d="M347.14,877.86l61.88,339.47l-134.45-198.9l-0.93,1.8l136.28,201.59c0.23,0.35,0.68,0.49,1.07,0.33
					c0.39-0.16,0.61-0.57,0.54-0.98l-63.05-345.89L347.14,877.86z"/>
			</g>
			<g id="triangle36_1150_" class="st8">
				<linearGradient id="SVGID_8_" gradientUnits="userSpaceOnUse" x1="192.4692" y1="1155.0978" x2="335.9962" y2="1155.0978">
					<stop  offset="0" style="stop-color:#7F8382"/>
					<stop  offset="1" style="stop-color:#506A62"/>
				</linearGradient>
				<path class="st11" d="M247.73,1070.41l84.94,169.14l-138.7-65.01l-0.81,1.58l141.08,66.12c0.34,0.16,0.75,0.09,1.01-0.19
					c0.26-0.27,0.33-0.68,0.16-1.02l-86.67-172.58L247.73,1070.41z"/>
			</g>
			<g id="triangle36_1149_" class="st8">
				<linearGradient id="SVGID_9_" gradientUnits="userSpaceOnUse" x1="501.477" y1="599.4149" x2="723.3473" y2="599.4149">
					<stop  offset="0" style="stop-color:#7F8382"/>
					<stop  offset="1" style="stop-color:#506A62"/>
				</linearGradient>
				<path class="st12" d="M719.05,607.47l-194.47,14.34l-21.52-45.98l-1.03,1.99l21.2,45.29c0.16,0.33,0.5,0.53,0.87,0.51
					l197.92-14.6c0.39-0.03,0.71-0.31,0.8-0.68c0.09-0.38-0.08-0.77-0.41-0.96"/>
			</g>
			<g id="triangle36_1148_" class="st8">
				<linearGradient id="SVGID_10_" gradientUnits="userSpaceOnUse" x1="1006.6104" y1="674.8145" x2="1008.8058" y2="674.8145">
					<stop  offset="0" style="stop-color:#7F8382"/>
					<stop  offset="1" style="stop-color:#506A62"/>
				</linearGradient>
				<path class="st13" d="M1008.19,675.53c-0.25,0.06-0.52,0.01-0.72-0.15c-0.21-0.15-0.34-0.39-0.35-0.65 M1008.81,673.58"/>
			</g>
			<g id="triangle36_1147_" class="st8">
				<linearGradient id="SVGID_11_" gradientUnits="userSpaceOnUse" x1="836.4539" y1="670.3597" x2="1009.3816" y2="670.3597">
					<stop  offset="0" style="stop-color:#7F8382"/>
					<stop  offset="1" style="stop-color:#506A62"/>
				</linearGradient>
				<path class="st14" d="M1008.88,674.6c0.02,0.25-0.07,0.5-0.25,0.68c-0.18,0.18-0.42,0.28-0.68,0.26l-170.15-8.67
					c-0.28-0.01-0.55-0.17-0.7-0.41c-0.15-0.25-0.18-0.55-0.07-0.81 M839.14,665.17l167.9,8.56"/>
			</g>
			<g id="triangle36_1146_" class="st8">
				<linearGradient id="SVGID_12_" gradientUnits="userSpaceOnUse" x1="720.5735" y1="637.2977" x2="839.1224" y2="637.2977">
					<stop  offset="0" style="stop-color:#7F8382"/>
					<stop  offset="1" style="stop-color:#506A62"/>
				</linearGradient>
				<path class="st15" d="M721.56,608.94c-0.15-0.12-0.42-0.36-0.48-0.63c-0.05-0.27,0.03-0.55,0.21-0.76 M838.66,666.33
					c-0.09,0.23-0.28,0.41-0.51,0.49c-0.23,0.09-0.49,0.07-0.71-0.04"/>
			</g>
			<g id="triangle36_1145_" class="st8">
				<linearGradient id="SVGID_13_" gradientUnits="userSpaceOnUse" x1="346.6155" y1="966.8836" x2="668.3112" y2="966.8836">
					<stop  offset="0" style="stop-color:#7F8382"/>
					<stop  offset="1" style="stop-color:#506A62"/>
				</linearGradient>
				<path class="st16" d="M432.08,713.32l233.41,4.83l-254.44,500.43l-62.58-343.3l-1.33,2.58l62.64,343.63
					c0.07,0.37,0.37,0.67,0.74,0.72c0.38,0.05,0.75-0.14,0.92-0.48l256.28-504.03c0.14-0.27,0.13-0.6-0.03-0.86
					c-0.09-0.14-0.21-0.26-0.35-0.33c-0.12-0.06-0.25-0.1-0.39-0.1l-233.95-4.84L432.08,713.32z"/>
			</g>
			<g id="triangle36_1144_" class="st8">
				<linearGradient id="SVGID_14_" gradientUnits="userSpaceOnUse" x1="522.6486" y1="662.7166" x2="723.3474" y2="662.7166">
					<stop  offset="0" style="stop-color:#7F8382"/>
					<stop  offset="1" style="stop-color:#506A62"/>
				</linearGradient>
				<path class="st17" d="M722.37,607.36c0.13,0.07,0.25,0.17,0.33,0.3c0.18,0.26,0.2,0.61,0.05,0.89l-55.04,109.15
					c-0.11,0.23-0.32,0.39-0.56,0.46c-0.25,0.07-0.51,0.02-0.72-0.12l-142.89-94.55c-0.32-0.21-0.47-0.6-0.37-0.96
					c0.1-0.37,0.42-0.63,0.79-0.66l197.92-14.6C722.06,607.25,722.22,607.28,722.37,607.36z M666.58,716l53.88-106.86l-193.77,14.29
					L666.58,716z"/>
			</g>
			<g id="triangle36_1143_" class="st8">
				<linearGradient id="SVGID_15_" gradientUnits="userSpaceOnUse" x1="431.2706" y1="670.0163" x2="668.3112" y2="670.0163">
					<stop  offset="0" style="stop-color:#7F8382"/>
					<stop  offset="1" style="stop-color:#506A62"/>
				</linearGradient>
				<path class="st18" d="M465.6,648.41l58.35-24.66l139.94,92.6l-230.89-4.78l-0.91,1.76l234.82,4.86c0.4,0.01,0.75-0.25,0.87-0.62
					c0.12-0.38-0.03-0.78-0.36-1L524.53,622c-0.03-0.02-0.05-0.03-0.08-0.05c-0.23-0.12-0.51-0.13-0.75-0.03l-56.82,24.02
					L465.6,648.41z"/>
			</g>
			<g id="triangle36_1142_" class="st8">
				<linearGradient id="SVGID_16_" gradientUnits="userSpaceOnUse" x1="464.5168" y1="617.1942" x2="525.4237" y2="617.1942">
					<stop  offset="0" style="stop-color:#7F8382"/>
					<stop  offset="1" style="stop-color:#506A62"/>
				</linearGradient>
				<path class="st19" d="M496.94,587.68l25.71,34.68l-55.78,23.58l-1.27,2.46l58.79-24.85c0.25-0.11,0.44-0.32,0.51-0.58
					c0.07-0.26,0.02-0.54-0.14-0.76l-26.9-36.29L496.94,587.68z"/>
			</g>
			<g id="triangle36_1141_" class="st8">
				<linearGradient id="SVGID_17_" gradientUnits="userSpaceOnUse" x1="496.3573" y1="599.4152" x2="525.4238" y2="599.4152">
					<stop  offset="0" style="stop-color:#7F8382"/>
					<stop  offset="1" style="stop-color:#506A62"/>
				</linearGradient>
				<path class="st20" d="M502.03,577.82l17.45,37.29l-21.64-29.19l-0.91,1.76l26.38,35.59c0.27,0.37,0.78,0.46,1.17,0.23
					c0.39-0.23,0.54-0.72,0.35-1.14l-21.78-46.53L502.03,577.82z"/>
			</g>
			<g id="triangle36_1140_" class="st8">
				<linearGradient id="SVGID_18_" gradientUnits="userSpaceOnUse" x1="1006.6072" y1="808.9519" x2="1134.577" y2="808.9519">
					<stop  offset="0" style="stop-color:#7F8382"/>
					<stop  offset="1" style="stop-color:#506A62"/>
				</linearGradient>
				<path class="st21" d="M1134.11,943.5c-0.12,0.34-0.43,0.57-0.79,0.59c-0.36,0.02-0.69-0.18-0.85-0.51l-125.28-268.54
					c-0.11-0.24-0.11-0.52,0.01-0.77c0.12-0.24,0.34-0.41,0.6-0.47 M1009.27,675.29l123.9,265.58"/>
			</g>
			<g id="triangle36_1139_" class="st8">
				<linearGradient id="SVGID_19_" gradientUnits="userSpaceOnUse" x1="909.1407" y1="808.9352" x2="1134.6582" y2="808.9352">
					<stop  offset="0" style="stop-color:#7F8382"/>
					<stop  offset="1" style="stop-color:#506A62"/>
				</linearGradient>
				<path class="st22" d="M1008.4,673.88c0.17,0.09,0.31,0.23,0.4,0.41l125.28,268.54c0.13,0.28,0.11,0.61-0.07,0.87
					c-0.17,0.26-0.47,0.41-0.78,0.39l-222.74-11.08c-0.29-0.01-0.54-0.16-0.7-0.4c-0.16-0.24-0.19-0.54-0.09-0.8l97.47-257.46
					c0.13-0.33,0.44-0.56,0.8-0.57C1008.12,673.77,1008.27,673.81,1008.4,673.88z M1131.85,942.25l-123.77-265.3L911.79,931.3
					L1131.85,942.25z"/>
			</g>
			<g id="triangle36_1138_" class="st8">
				<linearGradient id="SVGID_20_" gradientUnits="userSpaceOnUse" x1="409.2613" y1="1133.8065" x2="911.9149" y2="1133.8065">
					<stop  offset="0" style="stop-color:#7F8382"/>
					<stop  offset="1" style="stop-color:#506A62"/>
				</linearGradient>
				<path class="st23" d="M910.93,931.33c0.04,0.02,0.08,0.05,0.12,0.08c0.28,0.21,0.41,0.57,0.33,0.92l-96.64,403.37
					c-0.06,0.23-0.21,0.44-0.41,0.56c-0.21,0.12-0.46,0.15-0.69,0.09l-403.24-114.17c-0.34-0.1-0.6-0.39-0.64-0.74
					c-0.05-0.35,0.13-0.7,0.44-0.88l499.88-289.2C910.35,931.2,910.67,931.2,910.93,931.33z M813.24,1334.38l95.94-400.46
					l-496.28,287.12L813.24,1334.38z"/>
			</g>
			<g id="triangle36_1137_" class="st8">
				<linearGradient id="SVGID_21_" gradientUnits="userSpaceOnUse" x1="836.4539" y1="799.0569" x2="1009.3819" y2="799.0569">
					<stop  offset="0" style="stop-color:#7F8382"/>
					<stop  offset="1" style="stop-color:#506A62"/>
				</linearGradient>
				<path class="st24" d="M1008.4,673.88c0.13,0.07,0.25,0.17,0.34,0.3c0.16,0.24,0.19,0.54,0.09,0.8l-97.47,257.46
					c-0.14,0.36-0.49,0.59-0.87,0.57c-0.38-0.02-0.71-0.28-0.81-0.65l-72.69-266.13c-0.08-0.27-0.01-0.57,0.16-0.79
					c0.18-0.22,0.45-0.35,0.74-0.33l170.15,8.67C1008.17,673.78,1008.29,673.82,1008.4,673.88z M910.66,929.26l96.07-253.77
					l-167.71-8.55L910.66,929.26z"/>
			</g>
			<g id="triangle36_1136_" class="st8">
				<linearGradient id="SVGID_22_" gradientUnits="userSpaceOnUse" x1="665.5363" y1="799.0563" x2="911.9152" y2="799.0563">
					<stop  offset="0" style="stop-color:#7F8382"/>
					<stop  offset="1" style="stop-color:#506A62"/>
				</linearGradient>
				<path class="st25" d="M838.25,665.2c0.01,0,0.02,0.01,0.02,0.01c0.21,0.12,0.36,0.31,0.43,0.54l72.69,266.13
					c0.1,0.38-0.05,0.78-0.39,0.99c-0.33,0.2-0.76,0.17-1.06-0.09l-243.6-214.83c-0.24-0.21-0.35-0.54-0.28-0.86
					c0.07-0.32,0.3-0.57,0.61-0.66l170.92-51.3C837.81,665.07,838.04,665.1,838.25,665.2z M908.89,929.5l-71.67-262.4l-168.52,50.58
					L908.89,929.5z"/>
			</g>
			<g id="triangle36_1135_" class="st8">
				<linearGradient id="SVGID_23_" gradientUnits="userSpaceOnUse" x1="409.2606" y1="969.3083" x2="911.9153" y2="969.3083">
					<stop  offset="0" style="stop-color:#7F8382"/>
					<stop  offset="1" style="stop-color:#506A62"/>
				</linearGradient>
				<path class="st26" d="M667.33,716.5c0.06,0.03,0.13,0.07,0.18,0.12l243.6,214.83c0.21,0.19,0.32,0.47,0.3,0.75
					c-0.03,0.28-0.19,0.54-0.44,0.68l-499.88,289.2c-0.34,0.2-0.76,0.15-1.05-0.12c-0.29-0.27-0.36-0.7-0.18-1.05l256.28-504.03
					c0.12-0.24,0.35-0.42,0.62-0.47C666.95,716.38,667.16,716.41,667.33,716.5z M909.02,931.97L667.2,718.71l-254.4,500.34
					L909.02,931.97z"/>
			</g>
			<g id="triangle36_1134_" class="st8">
				<linearGradient id="SVGID_24_" gradientUnits="userSpaceOnUse" x1="1286.5103" y1="1018.6852" x2="1418.1168" y2="1018.6852">
					<stop  offset="0" style="stop-color:#7F8382"/>
					<stop  offset="1" style="stop-color:#506A62"/>
				</linearGradient>
				<path class="st27" d="M1417.14,945.26c0.06,0.03,0.13,0.07,0.18,0.13c0.37,0.32,0.4,0.89,0.08,1.25l-128.83,145.27
					c-0.32,0.37-0.88,0.41-1.25,0.08c-0.37-0.32-0.4-0.89-0.08-1.25l128.83-145.27C1416.34,945.15,1416.78,945.08,1417.14,945.26z"
					/>
			</g>
			<g id="triangle36_1133_" class="st8">
				<linearGradient id="SVGID_25_" gradientUnits="userSpaceOnUse" x1="1131.8842" y1="1017.2631" x2="1418.1171" y2="1017.2631">
					<stop  offset="0" style="stop-color:#7F8382"/>
					<stop  offset="1" style="stop-color:#506A62"/>
				</linearGradient>
				<path class="st28" d="M1417.14,945.26c0.18,0.09,0.32,0.24,0.4,0.43c0.14,0.32,0.08,0.69-0.15,0.95l-128.83,145.27
					c-0.16,0.18-0.39,0.29-0.63,0.3c-0.24,0.01-0.48-0.08-0.65-0.25l-154.63-148.11c-0.26-0.25-0.35-0.64-0.21-0.98
					c0.14-0.34,0.47-0.56,0.83-0.55l283.46,2.84C1416.88,945.16,1417.01,945.2,1417.14,945.26z M1287.85,1090.04l126.93-143.12
					l-279.27-2.8L1287.85,1090.04z"/>
			</g>
			<g id="triangle36_1132_" class="st8">
				<linearGradient id="SVGID_26_" gradientUnits="userSpaceOnUse" x1="1415.4982" y1="945.3814" x2="1418.0947" y2="945.3814">
					<stop  offset="0" style="stop-color:#7F8382"/>
					<stop  offset="1" style="stop-color:#506A62"/>
				</linearGradient>
				<path class="st29" d="M1417.6,946.2c-0.07,0.38-0.36,0.66-0.74,0.72c-0.38,0.06-0.75-0.13-0.92-0.47 M1416.32,943.33"/>
			</g>
			<g id="triangle36_1131_" class="st8">
				<linearGradient id="SVGID_27_" gradientUnits="userSpaceOnUse" x1="1131.8846" y1="944.6331" x2="1418.1163" y2="944.6331">
					<stop  offset="0" style="stop-color:#7F8382"/>
					<stop  offset="1" style="stop-color:#506A62"/>
				</linearGradient>
				<path class="st30" d="M1417.52,945.64c0.14,0.28,0.13,0.61-0.03,0.87c-0.16,0.26-0.45,0.42-0.77,0.42l-283.46-2.84
					c-0.29,0-0.55-0.14-0.72-0.38c-0.16-0.23-0.2-0.54-0.11-0.81 M1134.53,942.33l280.73,2.81"/>
			</g>
			<g id="triangle36_1130_" class="st8">
				<linearGradient id="SVGID_28_" gradientUnits="userSpaceOnUse" x1="720.8999" y1="608.9611" x2="722.9937" y2="608.9611">
					<stop  offset="0" style="stop-color:#7F8382"/>
					<stop  offset="1" style="stop-color:#506A62"/>
				</linearGradient>
				<path class="st31" d="M721.28,608.72c0.16,0.19,0.41,0.31,0.67,0.31c0.26,0,0.5-0.1,0.68-0.3"/>
				<linearGradient id="SVGID_29_" gradientUnits="userSpaceOnUse" x1="721.9802" y1="606.7908" x2="721.9802" y2="606.7908">
					<stop  offset="0" style="stop-color:#7F8382"/>
					<stop  offset="1" style="stop-color:#506A62"/>
				</linearGradient>
				<path class="st32" d="M721.98,606.79"/>
			</g>
			<g id="triangle36_1129_" class="st8">
				<linearGradient id="SVGID_30_" gradientUnits="userSpaceOnUse" x1="721.2493" y1="608.3984" x2="723.348" y2="608.3984">
					<stop  offset="0" style="stop-color:#7F8382"/>
					<stop  offset="1" style="stop-color:#506A62"/>
				</linearGradient>
				<path class="st33" d="M721.51,608.91c0.41,0.25,0.85,0.14,1.13-0.19c0.28-0.33,0.28-0.81,0-1.14"/>
				<linearGradient id="SVGID_31_" gradientUnits="userSpaceOnUse" x1="717.9611" y1="604.7706" x2="717.9611" y2="604.7706">
					<stop  offset="0" style="stop-color:#7F8382"/>
					<stop  offset="1" style="stop-color:#506A62"/>
				</linearGradient>
				<path class="st34" d="M717.96,604.77"/>
			</g>
			<g id="triangle36_1128_" class="st8">
				<linearGradient id="SVGID_32_" gradientUnits="userSpaceOnUse" x1="1041.7535" y1="1105.8267" x2="1289.2849" y2="1105.8267">
					<stop  offset="0" style="stop-color:#7F8382"/>
					<stop  offset="1" style="stop-color:#506A62"/>
				</linearGradient>
				<path class="st35" d="M1288.3,1090.53c0.25,0.13,0.44,0.38,0.47,0.68c0.06,0.49-0.29,0.93-0.78,0.99l-244.76,29.01
					c-0.48,0.06-0.93-0.29-0.99-0.78s0.29-0.93,0.78-0.99l244.76-29.01C1287.98,1090.42,1288.15,1090.45,1288.3,1090.53z"/>
			</g>
			<g id="triangle36_1127_" class="st8">
				<linearGradient id="SVGID_33_" gradientUnits="userSpaceOnUse" x1="1041.7535" y1="1031.77" x2="1289.2848" y2="1031.77">
					<stop  offset="0" style="stop-color:#7F8382"/>
					<stop  offset="1" style="stop-color:#506A62"/>
				</linearGradient>
				<path class="st36" d="M1133.68,942.42c0.08,0.04,0.14,0.09,0.21,0.15l154.63,148.11c0.25,0.24,0.34,0.6,0.23,0.92
					c-0.11,0.32-0.4,0.56-0.74,0.6l-244.76,29.01c-0.33,0.04-0.64-0.11-0.83-0.37c-0.19-0.27-0.21-0.62-0.06-0.91l90.13-177.13
					c0.13-0.25,0.37-0.43,0.64-0.47C1133.31,942.3,1133.51,942.33,1133.68,942.42z M1285.93,1090.66l-152.4-145.99l-88.84,174.59
					L1285.93,1090.66z"/>
			</g>
			<g id="triangle36_1125_" class="st8">
				<linearGradient id="SVGID_34_" gradientUnits="userSpaceOnUse" x1="909.141" y1="1026.2285" x2="1134.6587" y2="1026.2285">
					<stop  offset="0" style="stop-color:#7F8382"/>
					<stop  offset="1" style="stop-color:#506A62"/>
				</linearGradient>
				<path class="st37" d="M1133.68,942.42c0.15,0.08,0.27,0.19,0.36,0.34c0.15,0.26,0.16,0.58,0.02,0.85l-90.13,177.13
					c-0.14,0.28-0.42,0.46-0.73,0.48c-0.31,0.02-0.61-0.12-0.79-0.37L909.8,932.63c-0.19-0.28-0.21-0.64-0.05-0.94
					c0.16-0.3,0.48-0.47,0.82-0.46l222.74,11.08C1133.44,942.33,1133.57,942.36,1133.68,942.42z M1043.02,1118.62l88.84-174.59
					L912.3,933.1L1043.02,1118.62z"/>
			</g>
			<g id="triangle36_1124_" class="st8">
				<linearGradient id="SVGID_35_" gradientUnits="userSpaceOnUse" x1="812.5049" y1="1133.8108" x2="1044.5284" y2="1133.8108">
					<stop  offset="0" style="stop-color:#7F8382"/>
					<stop  offset="1" style="stop-color:#506A62"/>
				</linearGradient>
				<path class="st38" d="M910.93,931.33c0.12,0.06,0.23,0.16,0.32,0.28l132.61,188.21c0.25,0.36,0.2,0.85-0.12,1.16L814.5,1336.14
					c-0.28,0.27-0.74,0.34-1.05,0.12c-0.34-0.2-0.51-0.59-0.42-0.97l96.64-403.37c0.08-0.34,0.35-0.6,0.7-0.66
					C910.56,931.21,910.76,931.25,910.93,931.33z M1041.97,1120.21L910.93,934.24l-95.49,398.58L1041.97,1120.21z"/>
			</g>
		</g>
		<g>
			<linearGradient id="SVGID_36_" gradientUnits="userSpaceOnUse" x1="577.6768" y1="613.8127" x2="720.3247" y2="613.8127">
				<stop  offset="0" style="stop-color:#7F8382"/>
				<stop  offset="1" style="stop-color:#506A62"/>
			</linearGradient>
			<line class="st39" x1="720.19" y1="608.95" x2="577.81" y2="618.67"/>
			<linearGradient id="SVGID_37_" gradientUnits="userSpaceOnUse" x1="677.0557" y1="649.84" x2="721.9733" y2="649.84">
				<stop  offset="0" style="stop-color:#7F8382"/>
				<stop  offset="1" style="stop-color:#506A62"/>
			</linearGradient>
			<line class="st40" x1="678.84" y1="690.73" x2="720.19" y2="608.95"/>
			<linearGradient id="SVGID_38_" gradientUnits="userSpaceOnUse" x1="685.3173" y1="687.8878" x2="838.4608" y2="687.8878">
				<stop  offset="0" style="stop-color:#7F8382"/>
				<stop  offset="1" style="stop-color:#506A62"/>
			</linearGradient>
			<line class="st41" x1="837.89" y1="665.1" x2="685.89" y2="710.67"/>
			<linearGradient id="SVGID_39_" gradientUnits="userSpaceOnUse" x1="837.7847" y1="669.0533" x2="992.9014" y2="669.0533">
				<stop  offset="0" style="stop-color:#7F8382"/>
				<stop  offset="1" style="stop-color:#506A62"/>
			</linearGradient>
			<line class="st42" x1="992.8" y1="673" x2="837.89" y2="665.1"/>
			<linearGradient id="SVGID_40_" gradientUnits="userSpaceOnUse" x1="835.9553" y1="798.4569" x2="911.6287" y2="798.4569">
				<stop  offset="0" style="stop-color:#7F8382"/>
				<stop  offset="1" style="stop-color:#506A62"/>
			</linearGradient>
			<line class="st43" x1="909.7" y1="931.81" x2="837.89" y2="665.1"/>
			<linearGradient id="SVGID_41_" gradientUnits="userSpaceOnUse" x1="907.8334" y1="812.5654" x2="1004.2784" y2="812.5654">
				<stop  offset="0" style="stop-color:#7F8382"/>
				<stop  offset="1" style="stop-color:#506A62"/>
			</linearGradient>
			<line class="st44" x1="1002.41" y1="693.32" x2="909.7" y2="931.81"/>
			<linearGradient id="SVGID_42_" gradientUnits="userSpaceOnUse" x1="701.7894" y1="841.0976" x2="911.0172" y2="841.0976">
				<stop  offset="0" style="stop-color:#7F8382"/>
				<stop  offset="1" style="stop-color:#506A62"/>
			</linearGradient>
			<line class="st45" x1="703.11" y1="750.39" x2="909.7" y2="931.81"/>
			<linearGradient id="SVGID_43_" gradientUnits="userSpaceOnUse" x1="771.8517" y1="971.2794" x2="910.6968" y2="971.2794">
				<stop  offset="0" style="stop-color:#7F8382"/>
				<stop  offset="1" style="stop-color:#506A62"/>
			</linearGradient>
			<line class="st46" x1="772.85" y1="1010.75" x2="909.7" y2="931.81"/>
			<linearGradient id="SVGID_44_" gradientUnits="userSpaceOnUse" x1="862.4783" y1="1026.2856" x2="911.6425" y2="1026.2856">
				<stop  offset="0" style="stop-color:#7F8382"/>
				<stop  offset="1" style="stop-color:#506A62"/>
			</linearGradient>
			<line class="st47" x1="864.42" y1="1120.76" x2="909.7" y2="931.81"/>
			<linearGradient id="SVGID_45_" gradientUnits="userSpaceOnUse" x1="908.0615" y1="1008.1298" x2="1018.6568" y2="1008.1298">
				<stop  offset="0" style="stop-color:#7F8382"/>
				<stop  offset="1" style="stop-color:#506A62"/>
			</linearGradient>
			<line class="st48" x1="1017.02" y1="1084.45" x2="909.7" y2="931.81"/>
			<linearGradient id="SVGID_46_" gradientUnits="userSpaceOnUse" x1="1047.2324" y1="1025.6407" x2="1134.9077" y2="1025.6407">
				<stop  offset="0" style="stop-color:#7F8382"/>
				<stop  offset="1" style="stop-color:#506A62"/>
			</linearGradient>
			<line class="st49" x1="1133.12" y1="942.33" x2="1049.02" y2="1108.95"/>
			<linearGradient id="SVGID_47_" gradientUnits="userSpaceOnUse" x1="1075.1376" y1="1111.2288" x2="1174.3492" y2="1111.2288">
				<stop  offset="0" style="stop-color:#7F8382"/>
				<stop  offset="1" style="stop-color:#506A62"/>
			</linearGradient>
			<line class="st50" x1="1075.45" y1="1118.94" x2="1174.04" y2="1103.52"/>
			<linearGradient id="SVGID_48_" gradientUnits="userSpaceOnUse" x1="909.5877" y1="937.9267" x2="1132.3679" y2="937.9267">
				<stop  offset="0" style="stop-color:#7F8382"/>
				<stop  offset="1" style="stop-color:#506A62"/>
			</linearGradient>
			<line class="st51" x1="909.7" y1="931.81" x2="1132.26" y2="944.04"/>
		</g>
		<g>
			<g>
				<linearGradient id="SVGID_49_" gradientUnits="userSpaceOnUse" x1="324.8555" y1="1241.4463" x2="344.3624" y2="1241.4463">
					<stop  offset="0" style="stop-color:#7F8382"/>
					<stop  offset="1" style="stop-color:#506A62"/>
				</linearGradient>
				<path class="st52" d="M330.37,1249.67c4.54,2.34,10.12,0.56,12.46-3.98c2.34-4.54,0.56-10.12-3.98-12.46
					c-4.54-2.34-10.12-0.56-12.46,3.98C324.04,1241.74,325.82,1247.32,330.37,1249.67z"/>
				<linearGradient id="SVGID_50_" gradientUnits="userSpaceOnUse" x1="321.3102" y1="1241.4464" x2="347.9077" y2="1241.4464">
					<stop  offset="0" style="stop-color:#7F8382"/>
					<stop  offset="1" style="stop-color:#506A62"/>
				</linearGradient>
				<path class="st53" d="M330.37,1249.67c-4.54-2.34-6.32-7.92-3.98-12.46c2.34-4.54,7.92-6.32,12.46-3.98
					c4.54,2.34,6.32,7.92,3.98,12.46C340.49,1250.23,334.91,1252.01,330.37,1249.67 M328.74,1252.82c6.27,3.24,14.01,0.77,17.25-5.5
					c3.24-6.27,0.77-14.01-5.5-17.25c-6.27-3.24-14.01-0.77-17.25,5.5C320,1241.85,322.47,1249.58,328.74,1252.82L328.74,1252.82z"
					/>
			</g>
			<g>
				<linearGradient id="SVGID_51_" gradientUnits="userSpaceOnUse" x1="516.6794" y1="622.741" x2="531.3939" y2="622.741">
					<stop  offset="0" style="stop-color:#7F8382"/>
					<stop  offset="1" style="stop-color:#506A62"/>
				</linearGradient>
				<path class="st54" d="M520.89,628.83c3.36,1.74,7.5,0.42,9.24-2.95c1.74-3.36,0.42-7.5-2.95-9.24s-7.5-0.42-9.24,2.95
					S517.53,627.1,520.89,628.83z"/>
				<linearGradient id="SVGID_52_" gradientUnits="userSpaceOnUse" x1="513.1338" y1="622.7411" x2="534.9395" y2="622.7411">
					<stop  offset="0" style="stop-color:#7F8382"/>
					<stop  offset="1" style="stop-color:#506A62"/>
				</linearGradient>
				<path class="st55" d="M520.89,628.83c-3.36-1.74-4.68-5.87-2.95-9.24c1.74-3.36,5.87-4.68,9.24-2.95
					c3.36,1.74,4.68,5.87,2.95,9.24C528.39,629.25,524.26,630.57,520.89,628.83 M519.26,631.99c5.1,2.63,11.39,0.63,14.02-4.47
					c2.63-5.1,0.63-11.39-4.47-14.02c-5.1-2.63-11.39-0.63-14.02,4.47C512.16,623.07,514.17,629.35,519.26,631.99L519.26,631.99z"/>
			</g>
			<g>
				<linearGradient id="SVGID_53_" gradientUnits="userSpaceOnUse" x1="995.7395" y1="674.6639" x2="1020.2496" y2="674.6639">
					<stop  offset="0" style="stop-color:#7F8382"/>
					<stop  offset="1" style="stop-color:#506A62"/>
				</linearGradient>
				
					<ellipse transform="matrix(0.9527 -0.3039 0.3039 0.9527 -157.3708 338.2892)" class="st56" cx="1007.99" cy="674.66" rx="11.75" ry="11.75"/>
				<linearGradient id="SVGID_54_" gradientUnits="userSpaceOnUse" x1="992.1952" y1="674.6638" x2="1023.7938" y2="674.6638">
					<stop  offset="0" style="stop-color:#7F8382"/>
					<stop  offset="1" style="stop-color:#506A62"/>
				</linearGradient>
				<path class="st57" d="M1002.6,685.11c-5.77-2.98-8.03-10.07-5.05-15.83c2.98-5.77,10.07-8.03,15.83-5.05
					c5.77,2.98,8.03,10.07,5.05,15.83C1015.46,685.82,1008.37,688.08,1002.6,685.11 M1000.98,688.26c7.5,3.87,16.75,0.92,20.62-6.58
					c3.87-7.5,0.92-16.75-6.58-20.62s-16.74-0.92-20.62,6.58C990.53,675.14,993.48,684.39,1000.98,688.26L1000.98,688.26z"/>
			</g>
			<g>
				<linearGradient id="SVGID_55_" gradientUnits="userSpaceOnUse" x1="832.8071" y1="665.9907" x2="842.8745" y2="665.9907">
					<stop  offset="0" style="stop-color:#7F8382"/>
					<stop  offset="0.0324" style="stop-color:#787F7D"/>
					<stop  offset="0.1418" style="stop-color:#667570"/>
					<stop  offset="0.2781" style="stop-color:#596E68"/>
					<stop  offset="0.4692" style="stop-color:#526B64"/>
					<stop  offset="1" style="stop-color:#506A62"/>
				</linearGradient>
				<path class="st58" d="M833.37,663.68c-1.28,2.47-0.31,5.51,2.16,6.78c2.47,1.28,5.51,0.31,6.78-2.16
					c1.27-2.47,0.31-5.51-2.16-6.78C837.68,660.24,834.64,661.21,833.37,663.68z"/>
				<linearGradient id="SVGID_56_" gradientUnits="userSpaceOnUse" x1="829.2605" y1="665.9904" x2="846.421" y2="665.9904">
					<stop  offset="0" style="stop-color:#020303"/>
					<stop  offset="0.0172" style="stop-color:#060A0C"/>
					<stop  offset="0.0685" style="stop-color:#182023"/>
					<stop  offset="0.1261" style="stop-color:#263234"/>
					<stop  offset="0.1898" style="stop-color:#334342"/>
					<stop  offset="0.2618" style="stop-color:#3D504E"/>
					<stop  offset="0.3458" style="stop-color:#455C57"/>
					<stop  offset="0.4497" style="stop-color:#4B645E"/>
					<stop  offset="0.5954" style="stop-color:#4F6961"/>
					<stop  offset="1" style="stop-color:#506A62"/>
				</linearGradient>
				<path class="st59" d="M835.53,670.46c-2.47-1.27-3.44-4.31-2.16-6.78c1.27-2.47,4.31-3.44,6.78-2.16
					c2.47,1.28,3.44,4.31,2.16,6.78C841.04,670.77,838,671.74,835.53,670.46 M833.9,673.62c4.2,2.17,9.39,0.52,11.56-3.69
					c2.17-4.2,0.52-9.39-3.69-11.56c-4.2-2.17-9.39-0.52-11.56,3.69C828.05,666.26,829.7,671.44,833.9,673.62L833.9,673.62z"/>
			</g>
			<g>
				<linearGradient id="SVGID_57_" gradientUnits="userSpaceOnUse" x1="654.8425" y1="717.2916" x2="679.0065" y2="717.2916">
					<stop  offset="0" style="stop-color:#7F8382"/>
					<stop  offset="1" style="stop-color:#506A62"/>
				</linearGradient>
				<path class="st60" d="M672.24,707c-5.68-2.93-12.67-0.71-15.6,4.98c-2.93,5.68-0.71,12.67,4.98,15.6
					c5.68,2.93,12.67,0.71,15.6-4.98C680.15,716.92,677.92,709.94,672.24,707z"/>
				<linearGradient id="SVGID_58_" gradientUnits="userSpaceOnUse" x1="651.2979" y1="717.2917" x2="682.551" y2="717.2917">
					<stop  offset="0" style="stop-color:#7F8382"/>
					<stop  offset="1" style="stop-color:#506A62"/>
				</linearGradient>
				<path class="st61" d="M661.61,727.58c-5.68-2.93-7.91-9.92-4.98-15.6c2.93-5.68,9.92-7.91,15.6-4.98
					c5.68,2.93,7.91,9.92,4.98,15.6C674.28,728.29,667.3,730.51,661.61,727.58 M659.98,730.73c7.41,3.83,16.56,0.91,20.38-6.5
					c3.83-7.41,0.91-16.56-6.5-20.38c-7.41-3.83-16.56-0.91-20.38,6.5C649.66,717.76,652.57,726.91,659.98,730.73L659.98,730.73z"/>
			</g>
			<g>
				<linearGradient id="SVGID_59_" gradientUnits="userSpaceOnUse" x1="402.9143" y1="1221.3247" x2="418.3829" y2="1221.3247">
					<stop  offset="0" style="stop-color:#7F8382"/>
					<stop  offset="1" style="stop-color:#506A62"/>
				</linearGradient>
				<path class="st62" d="M404.22,1218.01c-1.83,3.55-0.44,7.91,3.11,9.74c3.55,1.83,7.91,0.44,9.75-3.11
					c1.83-3.55,0.44-7.91-3.11-9.74C410.42,1213.07,406.05,1214.46,404.22,1218.01z"/>
				<linearGradient id="SVGID_60_" gradientUnits="userSpaceOnUse" x1="399.3681" y1="1221.3246" x2="421.9289" y2="1221.3246">
					<stop  offset="0" style="stop-color:#7F8382"/>
					<stop  offset="1" style="stop-color:#506A62"/>
				</linearGradient>
				<path class="st63" d="M407.33,1227.75c-3.55-1.83-4.94-6.2-3.11-9.74c1.83-3.55,6.2-4.94,9.75-3.11
					c3.55,1.83,4.94,6.2,3.11,9.74C415.24,1228.19,410.88,1229.58,407.33,1227.75 M405.7,1230.9c5.28,2.73,11.8,0.65,14.53-4.63
					c2.73-5.28,0.65-11.8-4.63-14.53c-5.28-2.73-11.8-0.65-14.53,4.63C398.34,1221.66,400.42,1228.18,405.7,1230.9L405.7,1230.9z"/>
			</g>
			<g>
				<linearGradient id="SVGID_61_" gradientUnits="userSpaceOnUse" x1="1411.1576" y1="946.0477" x2="1422.3021" y2="946.0477">
					<stop  offset="0" style="stop-color:#7F8382"/>
					<stop  offset="1" style="stop-color:#506A62"/>
				</linearGradient>
				<path class="st64" d="M1414.4,950.55c2.49,1.28,5.55,0.31,6.83-2.18c1.28-2.49,0.31-5.55-2.18-6.83
					c-2.49-1.28-5.55-0.31-6.83,2.18C1410.94,946.21,1411.91,949.27,1414.4,950.55z"/>
				<linearGradient id="SVGID_62_" gradientUnits="userSpaceOnUse" x1="1407.6112" y1="946.0477" x2="1425.8485" y2="946.0477">
					<stop  offset="0" style="stop-color:#7F8382"/>
					<stop  offset="1" style="stop-color:#506A62"/>
				</linearGradient>
				<path class="st65" d="M1414.4,950.55c-2.49-1.28-3.46-4.34-2.18-6.83c1.28-2.49,4.34-3.46,6.83-2.18
					c2.49,1.28,3.46,4.34,2.18,6.83C1419.95,950.86,1416.89,951.84,1414.4,950.55 M1412.78,953.71c4.22,2.18,9.43,0.52,11.61-3.7
					s0.52-9.43-3.7-11.61c-4.22-2.18-9.43-0.52-11.61,3.7C1406.89,946.32,1408.55,951.53,1412.78,953.71L1412.78,953.71z"/>
			</g>
			<g>
				<linearGradient id="SVGID_63_" gradientUnits="userSpaceOnUse" x1="1456.4655" y1="708.8535" x2="1456.4655" y2="708.8535">
					<stop  offset="0" style="stop-color:#7F8382"/>
					<stop  offset="1" style="stop-color:#506A62"/>
				</linearGradient>
				<path class="st66" d="M1456.47,708.85L1456.47,708.85"/>
			</g>
			<g>
				<linearGradient id="SVGID_64_" gradientUnits="userSpaceOnUse" x1="711.7604" y1="608.1446" x2="732.1597" y2="608.1446">
					<stop  offset="0" style="stop-color:#7F8382"/>
					<stop  offset="0.0324" style="stop-color:#787F7D"/>
					<stop  offset="0.1418" style="stop-color:#667570"/>
					<stop  offset="0.2781" style="stop-color:#596E68"/>
					<stop  offset="0.4692" style="stop-color:#526B64"/>
					<stop  offset="1" style="stop-color:#506A62"/>
				</linearGradient>
				<path class="st67" d="M717.28,617.21c5,2.58,11.16,0.62,13.74-4.38c2.58-5,0.62-11.16-4.38-13.74c-5-2.58-11.16-0.62-13.74,4.38
					C710.32,608.47,712.28,614.62,717.28,617.21z"/>
				<linearGradient id="SVGID_65_" gradientUnits="userSpaceOnUse" x1="708.2154" y1="608.1445" x2="735.7047" y2="608.1445">
					<stop  offset="0" style="stop-color:#020303"/>
					<stop  offset="0.0172" style="stop-color:#060A0C"/>
					<stop  offset="0.0685" style="stop-color:#182023"/>
					<stop  offset="0.1261" style="stop-color:#263234"/>
					<stop  offset="0.1898" style="stop-color:#334342"/>
					<stop  offset="0.2618" style="stop-color:#3D504E"/>
					<stop  offset="0.3458" style="stop-color:#455C57"/>
					<stop  offset="0.4497" style="stop-color:#4B645E"/>
					<stop  offset="0.5954" style="stop-color:#4F6961"/>
					<stop  offset="1" style="stop-color:#506A62"/>
				</linearGradient>
				<path class="st68" d="M717.28,617.21c-5-2.58-6.97-8.73-4.38-13.74s8.74-6.97,13.74-4.38c5,2.58,6.97,8.73,4.38,13.74
					C728.44,617.83,722.29,619.79,717.28,617.21 M715.65,620.36c6.74,3.48,15.04,0.83,18.52-5.91c3.48-6.73,0.83-15.04-5.91-18.52
					c-6.73-3.48-15.04-0.83-18.52,5.91C706.27,608.57,708.92,616.88,715.65,620.36L715.65,620.36z"/>
			</g>
			<g>
				<linearGradient id="SVGID_66_" gradientUnits="userSpaceOnUse" x1="1279.3832" y1="1091.3193" x2="1296.4121" y2="1091.3193">
					<stop  offset="0" style="stop-color:#7F8382"/>
					<stop  offset="1" style="stop-color:#506A62"/>
				</linearGradient>
				<path class="st69" d="M1284.22,1098.44c3.93,2.03,8.77,0.49,10.8-3.44c2.03-3.93,0.49-8.77-3.44-10.8s-8.77-0.49-10.8,3.44
					C1278.75,1091.58,1280.29,1096.41,1284.22,1098.44z"/>
				<linearGradient id="SVGID_67_" gradientUnits="userSpaceOnUse" x1="1275.8374" y1="1091.3193" x2="1299.9578" y2="1091.3193">
					<stop  offset="0" style="stop-color:#7F8382"/>
					<stop  offset="1" style="stop-color:#506A62"/>
				</linearGradient>
				<path class="st70" d="M1284.22,1098.44c-3.93-2.03-5.47-6.86-3.44-10.8c2.03-3.93,6.86-5.47,10.8-3.44s5.47,6.86,3.44,10.8
					C1292.99,1098.93,1288.15,1100.47,1284.22,1098.44 M1282.59,1101.59c5.66,2.92,12.65,0.7,15.58-4.97
					c2.92-5.66,0.69-12.65-4.97-15.58c-5.66-2.92-12.65-0.7-15.58,4.97S1276.93,1098.67,1282.59,1101.59L1282.59,1101.59z"/>
			</g>
			<g>
				<linearGradient id="SVGID_68_" gradientUnits="userSpaceOnUse" x1="1126.8193" y1="943.2065" x2="1139.7253" y2="943.2065">
					<stop  offset="0" style="stop-color:#7F8382"/>
					<stop  offset="1" style="stop-color:#506A62"/>
				</linearGradient>
				<path class="st71" d="M1130.54,948.5c2.92,1.51,6.51,0.36,8.02-2.56c1.51-2.92,0.36-6.51-2.56-8.02
					c-2.92-1.51-6.51-0.36-8.02,2.56C1126.48,943.4,1127.62,946.99,1130.54,948.5z"/>
				<linearGradient id="SVGID_69_" gradientUnits="userSpaceOnUse" x1="1123.2731" y1="943.2065" x2="1143.2717" y2="943.2065">
					<stop  offset="0" style="stop-color:#7F8382"/>
					<stop  offset="1" style="stop-color:#506A62"/>
				</linearGradient>
				<path class="st72" d="M1130.54,948.5c-2.92-1.51-4.07-5.1-2.56-8.02c1.51-2.92,5.1-4.07,8.02-2.56c2.92,1.51,4.07,5.1,2.56,8.02
					C1137.05,948.86,1133.46,950,1130.54,948.5 M1128.91,951.65c4.65,2.4,10.4,0.57,12.8-4.08c2.4-4.65,0.57-10.4-4.08-12.8
					c-4.65-2.4-10.4-0.57-12.8,4.08S1124.26,949.25,1128.91,951.65L1128.91,951.65z"/>
			</g>
			<g>
				<linearGradient id="SVGID_70_" gradientUnits="userSpaceOnUse" x1="867.5087" y1="1398.0013" x2="887.4294" y2="1398.0013">
					<stop  offset="0" style="stop-color:#7F8382"/>
					<stop  offset="1" style="stop-color:#506A62"/>
				</linearGradient>
				<path class="st73" d="M873.13,1406.41c4.64,2.4,10.35,0.58,12.74-4.07c2.4-4.64,0.58-10.35-4.07-12.74
					c-4.64-2.4-10.35-0.58-12.74,4.07C866.67,1398.3,868.49,1404.01,873.13,1406.41z"/>
				<linearGradient id="SVGID_71_" gradientUnits="userSpaceOnUse" x1="863.9636" y1="1398.0012" x2="890.9745" y2="1398.0012">
					<stop  offset="0" style="stop-color:#7F8382"/>
					<stop  offset="1" style="stop-color:#506A62"/>
				</linearGradient>
				<path class="st74" d="M873.13,1406.41c-4.64-2.4-6.46-8.1-4.07-12.74c2.4-4.64,8.1-6.46,12.74-4.07
					c4.64,2.4,6.46,8.1,4.07,12.74C883.48,1406.98,877.77,1408.8,873.13,1406.41 M871.5,1409.56c6.37,3.29,14.23,0.78,17.52-5.59
					c3.29-6.37,0.78-14.23-5.59-17.52c-6.37-3.29-14.23-0.78-17.52,5.59C862.62,1398.41,865.13,1406.27,871.5,1409.56L871.5,1409.56
					z"/>
			</g>
			<g>
				<linearGradient id="SVGID_72_" gradientUnits="userSpaceOnUse" x1="1029.8263" y1="1120.3335" x2="1056.4548" y2="1120.3335">
					<stop  offset="0" style="stop-color:#7F8382"/>
					<stop  offset="1" style="stop-color:#506A62"/>
				</linearGradient>
				<path class="st75" d="M1049.02,1108.95c-6.29-3.25-14.02-0.78-17.26,5.51c-3.25,6.29-0.78,14.02,5.51,17.26
					c6.29,3.25,14.02,0.78,17.26-5.51C1057.77,1119.92,1055.3,1112.2,1049.02,1108.95z"/>
				<linearGradient id="SVGID_73_" gradientUnits="userSpaceOnUse" x1="1026.2822" y1="1120.3335" x2="1059.9987" y2="1120.3335">
					<stop  offset="0" style="stop-color:#7F8382"/>
					<stop  offset="1" style="stop-color:#506A62"/>
				</linearGradient>
				<path class="st76" d="M1037.26,1131.72c-6.29-3.25-8.75-10.97-5.51-17.26c3.25-6.29,10.97-8.75,17.26-5.51
					c6.29,3.25,8.75,10.97,5.51,17.26C1051.28,1132.5,1043.55,1134.96,1037.26,1131.72 M1035.64,1134.87
					c8.02,4.14,17.9,0.98,22.04-7.03c4.14-8.02,0.98-17.9-7.03-22.04c-8.02-4.14-17.9-0.98-22.04,7.03
					C1024.47,1120.84,1027.62,1130.73,1035.64,1134.87L1035.64,1134.87z"/>
			</g>
			<g>
				<linearGradient id="SVGID_74_" gradientUnits="userSpaceOnUse" x1="903.9885" y1="932.1238" x2="917.0689" y2="932.1238">
					<stop  offset="0" style="stop-color:#7F8382"/>
					<stop  offset="0.0324" style="stop-color:#787F7D"/>
					<stop  offset="0.1418" style="stop-color:#667570"/>
					<stop  offset="0.2781" style="stop-color:#596E68"/>
					<stop  offset="0.4692" style="stop-color:#526B64"/>
					<stop  offset="1" style="stop-color:#506A62"/>
				</linearGradient>
				<path class="st77" d="M907.53,937.93c3.21,1.66,7.15,0.4,8.81-2.81c1.66-3.21,0.4-7.15-2.81-8.81c-3.21-1.66-7.15-0.4-8.81,2.81
					C903.06,932.33,904.32,936.28,907.53,937.93z"/>
				<linearGradient id="SVGID_75_" gradientUnits="userSpaceOnUse" x1="900.4425" y1="932.1238" x2="920.6148" y2="932.1238">
					<stop  offset="0" style="stop-color:#020303"/>
					<stop  offset="0.0172" style="stop-color:#060A0C"/>
					<stop  offset="0.0685" style="stop-color:#182023"/>
					<stop  offset="0.1261" style="stop-color:#263234"/>
					<stop  offset="0.1898" style="stop-color:#334342"/>
					<stop  offset="0.2618" style="stop-color:#3D504E"/>
					<stop  offset="0.3458" style="stop-color:#455C57"/>
					<stop  offset="0.4497" style="stop-color:#4B645E"/>
					<stop  offset="0.5954" style="stop-color:#4F6961"/>
					<stop  offset="1" style="stop-color:#506A62"/>
				</linearGradient>
				<path class="st78" d="M907.53,937.93c-3.21-1.66-4.47-5.6-2.81-8.81c1.66-3.21,5.6-4.47,8.81-2.81c3.21,1.66,4.47,5.6,2.81,8.81
					C914.68,938.33,910.74,939.59,907.53,937.93 M905.9,941.09c4.94,2.55,11.04,0.61,13.59-4.34c2.55-4.94,0.61-11.04-4.34-13.59
					c-4.94-2.55-11.04-0.61-13.59,4.34C899.01,932.44,900.96,938.54,905.9,941.09L905.9,941.09z"/>
			</g>
			<g>
				<linearGradient id="SVGID_76_" gradientUnits="userSpaceOnUse" x1="806.1204" y1="1335.4889" x2="821.6629" y2="1335.4889">
					<stop  offset="0" style="stop-color:#7F8382"/>
					<stop  offset="1" style="stop-color:#506A62"/>
				</linearGradient>
				<path class="st79" d="M810.56,1341.95c3.57,1.84,7.95,0.44,9.79-3.12c1.84-3.57,0.44-7.95-3.12-9.79
					c-3.57-1.84-7.95-0.44-9.79,3.12C805.59,1335.72,806.99,1340.11,810.56,1341.95z"/>
				<linearGradient id="SVGID_77_" gradientUnits="userSpaceOnUse" x1="802.5746" y1="1335.489" x2="825.2086" y2="1335.489">
					<stop  offset="0" style="stop-color:#7F8382"/>
					<stop  offset="1" style="stop-color:#506A62"/>
				</linearGradient>
				<path class="st80" d="M810.56,1341.95c-3.57-1.84-4.97-6.23-3.12-9.79c1.84-3.57,6.23-4.97,9.79-3.12
					c3.57,1.84,4.97,6.23,3.12,9.79C818.51,1342.39,814.12,1343.79,810.56,1341.95 M808.93,1345.1c5.3,2.74,11.84,0.65,14.58-4.65
					c2.74-5.3,0.65-11.84-4.65-14.58c-5.3-2.74-11.84-0.65-14.58,4.65C801.54,1335.83,803.63,1342.37,808.93,1345.1L808.93,1345.1z"
					/>
			</g>
		</g>
	</g>
</g>
<linearGradient id="SVGID_78_" gradientUnits="userSpaceOnUse" x1="1037.2142" y1="1322.4849" x2="1037.2142" y2="1074.1934">
	<stop  offset="0" style="stop-color:#020303"/>
	<stop  offset="0.0147" style="stop-color:#05080A"/>
	<stop  offset="0.0681" style="stop-color:#171F22"/>
	<stop  offset="0.1279" style="stop-color:#263133"/>
	<stop  offset="0.1939" style="stop-color:#324241"/>
	<stop  offset="0.2681" style="stop-color:#3D504D"/>
	<stop  offset="0.3545" style="stop-color:#465B56"/>
	<stop  offset="0.4606" style="stop-color:#4C635D"/>
	<stop  offset="0.608" style="stop-color:#4F6861"/>
	<stop  offset="1" style="stop-color:#516962"/>
</linearGradient>
<circle class="st81" cx="1037.21" cy="1198.34" r="124.13"/>
<g class="st82">
	<defs>
		<path id="SVGID_79_" class="st82" d="M1380.04,245.27c-52.65-79.81-133.54-140.68-231.39-166.6
			C841.11,179.3,833.1,326.51,841.67,380.1c1.03-2.51,3.02-4.63,5.73-5.74l86.1-35.15c115.66-47.09,204.01-17.43,242.42,76.92
			c21.38,52.53,19.38,102.15-3.4,144.9c-2.29,4.8-6.66,12.62-14.46,22.59c-12.27,16.29-27.89,31.34-46.68,44.86
			c-9.11,6.98-19.51,14.23-31.33,21.65C1190.97,596.95,1336.78,483.1,1380.04,245.27z"/>
	</defs>
	<clipPath id="SVGID_80_">
		<use xlink:href="#SVGID_79_"  style="overflow:visible;"/>
	</clipPath>
	<g class="st83">
		<g class="st7">
			<g id="triangle36_635_" class="st8">
				<path class="st84" d="M1695.58,103.07l-312.3-14.96l34.21-128.61l-1.61-0.83l-34.59,130.04c-0.07,0.26-0.02,0.54,0.14,0.75
					c0.16,0.22,0.41,0.35,0.67,0.36l317.28,15.2L1695.58,103.07z"/>
			</g>
			<g id="triangle36_634_" class="st8">
				<polygon class="st84" points="906.08,-236.23 1099.79,-204.51 1094.69,-207.15 906.94,-237.89 				"/>
			</g>
			<g id="triangle36_632_" class="st8">
				<line class="st84" x1="2292.56" y1="411.27" x2="2290.74" y2="410.33"/>
			</g>
			<g id="triangle36_631_" class="st8">
				<polygon class="st84" points="906.08,-236.23 1099.79,-204.51 1094.69,-207.15 906.94,-237.89 				"/>
				<path class="st84" d="M901.66-227.66l152.53,132.43c0.37,0.31,0.93,0.28,1.25-0.09l79.67-90.96l-1.62-0.84l-78.8,89.97
					L902.49-229.28L901.66-227.66z"/>
			</g>
			<g id="triangle36_630_" class="st8">
				<path class="st84" d="M715.34,133.23l123.34-6.12l62.25,55.99l-200.35-21.27l-0.87,1.69l203.76,21.63
					c0.38,0.04,0.75-0.17,0.9-0.52c0.16-0.35,0.07-0.76-0.22-1.02l-64.56-58.07c-0.06-0.05-0.12-0.1-0.19-0.13
					c-0.14-0.07-0.29-0.11-0.45-0.1l-122.67,6.08L715.34,133.23z"/>
			</g>
			<g id="triangle36_629_" class="st8">
				<path class="st84" d="M1415.87-41.33l-34.18,128.51l-78.95-83.34l83.33-60.56l-1.76-0.91l-83.43,60.63
					c-0.21,0.15-0.34,0.38-0.36,0.64c-0.02,0.26,0.06,0.51,0.24,0.69l80.74,85.23c0.21,0.24,0.55,0.33,0.86,0.25
					c0.31-0.08,0.56-0.32,0.64-0.63l34.49-129.67L1415.87-41.33z"/>
			</g>
			<g id="triangle36_628_" class="st8">
				<path class="st84" d="M1384.3-57.63l-82.16,59.71l-9.72-107.14l-1.87-0.97l9.97,109.83c0.03,0.32,0.21,0.63,0.52,0.73
					c0.29,0.13,0.63,0.1,0.89-0.09l84.15-61.15L1384.3-57.63z"/>
			</g>
			<g id="triangle36_627_" class="st8">
				<path class="st84" d="M1292.42-105.07l-1.87-0.97l9.69,106.81l-132.47-170.2l-3.76-1.94L1300.7,4.26
					c0.24,0.31,0.66,0.43,1.03,0.28c0.37-0.14,0.59-0.51,0.56-0.91L1292.42-105.07z"/>
			</g>
			<g id="triangle36_626_" class="st8">
				<path class="st84" d="M1302.1,3.17l-134.32-172.58l-3.76-1.94L1298.67,1.65l-242.41-97.91l78.85-90.02l-1.62-0.84l-79.39,90.63
					c-0.19,0.22-0.26,0.51-0.2,0.79c0.07,0.28,0.28,0.51,0.53,0.62l246.63,99.62c0.37,0.15,0.8,0.03,1.04-0.29
					C1302.35,3.93,1302.34,3.48,1302.1,3.17z"/>
			</g>
			<g id="triangle36_623_" class="st8">
				<line class="st84" x1="2366.33" y1="449.36" x2="2364.75" y2="448.54"/>
				<line class="st84" x1="2292.56" y1="411.27" x2="2290.74" y2="410.33"/>
			</g>
			<g id="triangle36_621_" class="st8">
				<path class="st84" d="M1944.97,297.16c-0.15-0.34-0.07-0.75,0.21-1.01c0.27-0.25,0.68-0.31,1.01-0.14c0,0,0.01,0,0.01,0
					 M1947.63,298.78"/>
			</g>
			<g id="triangle36_620_" class="st8">
				<path class="st84" d="M1945.75,295.91c-0.4,0.01-0.74,0.29-0.84,0.69c-0.09,0.39,0.09,0.79,0.45,0.98"/>
				<path class="st84" d="M1949.14,297.58"/>
			</g>
			<g id="triangle36_619_" class="st8">
				<path class="st84" d="M1945.31,296.04c-0.34,0.21-0.5,0.63-0.39,1.01c0.11,0.39,0.48,0.65,0.88,0.63"/>
				<path class="st84" d="M1949.11,295.8"/>
			</g>
			<g id="triangle36_618_" class="st8">
				<path class="st84" d="M1945.89,295.69L1796.94,155.4l-5.72-2.96l153.95,145c0.29,0.29,0.73,0.32,1.07,0.11"/>
			</g>
			<g id="triangle36_614_" class="st8">
				<path class="st84" d="M904.36,183.9c-0.08-0.18-0.22-0.32-0.39-0.41c-0.1-0.05-0.2-0.08-0.31-0.09l-203.08-21.56l-0.87,1.69
					l203.27,21.58"/>
				<line class="st84" x1="677.97" y1="205.62" x2="677.15" y2="207.21"/>
			</g>
			<g id="triangle36_609_" class="st8">
				<path class="st84" d="M1946.39,296.15L1796.94,155.4l-5.72-2.96l152.33,143.47l-400.76,1.57l186.79-176.86l-1.67-0.86
					l-187.97,177.98c-0.27,0.25-0.35,0.64-0.21,0.97c0.13,0.34,0.46,0.56,0.83,0.56l405.23-1.59c0.36,0,0.69-0.22,0.82-0.56
					C1946.73,296.78,1946.65,296.4,1946.39,296.15z"/>
			</g>
			<g id="triangle36_608_" class="st8">
				<path class="st84" d="M1727.91,119.76l-187.25,177.3L1383.99,89.91l315.38,15.11l-3.8-1.96l-313.4-15.02
					c-0.34-0.02-0.67,0.17-0.83,0.47c-0.16,0.3-0.13,0.68,0.08,0.95l158.41,209.45c0.15,0.2,0.38,0.32,0.63,0.35
					c0.25,0.02,0.5-0.07,0.68-0.24l188.42-178.41L1727.91,119.76z"/>
			</g>
			<g id="triangle36_607_" class="st8">
				<path class="st84" d="M1539.88,297.8c0.27-0.31,0.72-0.39,1.07-0.2c0.04,0.02,0.08,0.04,0.11,0.07
					c0.37,0.27,0.48,0.77,0.25,1.17 M1535.23,305.76"/>
			</g>
			<g id="triangle36_603_" class="st8">
				<path class="st84" d="M1150.12,183.74c-0.17-0.32-0.13-0.7,0.09-0.98c0.23-0.28,0.6-0.39,0.94-0.29l389.65,115.06
					c0.05,0.02,0.11,0.04,0.15,0.06c0.21,0.11,0.38,0.31,0.45,0.54c0.08,0.29,0.01,0.61-0.19,0.83 M1538.96,298.84l-386.27-114.07"
					/>
			</g>
			<g id="triangle36_602_" class="st8">
				<path class="st84" d="M1382.54,88.15c0.12,0.06,0.22,0.14,0.3,0.25l158.41,209.45c0.23,0.31,0.24,0.72,0.02,1.04
					c-0.22,0.31-0.61,0.45-0.98,0.35l-389.65-115.06c-0.36-0.11-0.61-0.43-0.63-0.81c-0.02-0.38,0.2-0.72,0.55-0.86l231.24-94.38
					C1382.05,88.02,1382.32,88.03,1382.54,88.15z M1538.21,296.77L1381.84,90.02l-228.26,93.17L1538.21,296.77z"/>
			</g>
			<g id="triangle36_601_" class="st8">
				<path class="st84" d="M1150.38,182.6c0.21-0.15,0.47-0.2,0.72-0.15c0.07,0.02,0.14,0.04,0.21,0.08
					c0.16,0.08,0.29,0.21,0.37,0.37 M1150.6,184.63"/>
			</g>
			<g id="triangle36_600_" class="st8">
				<path class="st84" d="M1301.8,2.92c0.09,0.05,0.17,0.1,0.24,0.18l80.74,85.23c0.2,0.21,0.28,0.51,0.22,0.8s-0.26,0.52-0.53,0.63
					l-231.24,94.38c-0.38,0.16-0.81,0.03-1.05-0.3c-0.24-0.33-0.22-0.78,0.04-1.09l150.5-179.61c0.16-0.19,0.4-0.31,0.65-0.32
					C1301.52,2.82,1301.67,2.85,1301.8,2.92z M1380.6,88.61l-79.16-83.56l-147.56,176.1L1380.6,88.61z"/>
			</g>
			<g id="triangle36_599_" class="st8">
				<path class="st84" d="M1301.8,2.92c0.22,0.12,0.39,0.33,0.45,0.57c0.07,0.28,0,0.57-0.18,0.78l-150.5,179.61
					c-0.21,0.24-0.53,0.36-0.84,0.3c-0.31-0.06-0.57-0.28-0.68-0.58l-96.13-279.22c-0.11-0.33-0.02-0.69,0.23-0.93
					c0.25-0.24,0.62-0.31,0.94-0.18l246.63,99.62C1301.75,2.9,1301.78,2.91,1301.8,2.92z M1151.23,181.55L1299.93,4.08
					l-243.69-98.43L1151.23,181.55z"/>
			</g>
			<g id="triangle36_598_" class="st8">
				<path class="st84" d="M902.76,184.66c-0.13-0.27-0.11-0.6,0.05-0.85c0.16-0.26,0.44-0.41,0.75-0.41l247.34-0.96
					c0.15,0,0.29,0.03,0.41,0.1c0.2,0.1,0.36,0.29,0.44,0.51c0.12,0.37-0.01,0.77-0.32,0.99 M1148.14,184.22l-243.19,0.94"/>
			</g>
			<g id="triangle36_597_" class="st8">
				<path class="st84" d="M1055.18-96.69c0.2,0.1,0.36,0.28,0.43,0.5l96.13,279.22c0.1,0.3,0.04,0.63-0.17,0.87
					c-0.2,0.24-0.52,0.35-0.83,0.29l-311.9-57.11c-0.32-0.06-0.59-0.29-0.69-0.6c-0.1-0.31-0.02-0.65,0.21-0.89l215.77-222.11
					c0.22-0.22,0.53-0.31,0.83-0.25C1055.04-96.75,1055.11-96.73,1055.18-96.69z M1149.57,182.17L1054.4-94.25L840.79,125.64
					L1149.57,182.17z"/>
			</g>
			<g id="triangle36_596_" class="st8">
				<path class="st84" d="M1151.31,182.53c0.31,0.16,0.51,0.5,0.48,0.87c-0.04,0.46-0.42,0.81-0.88,0.81l-247.34,0.96
					c-0.22,0-0.43-0.08-0.6-0.23l-64.56-58.07c-0.29-0.27-0.38-0.69-0.2-1.05c0.18-0.36,0.57-0.55,0.96-0.48l311.9,57.11
					C1151.15,182.46,1151.23,182.49,1151.31,182.53z M903.9,183.39l237.44-0.92l-299.41-54.82L903.9,183.39z"/>
			</g>
			<g id="triangle36_593_" class="st8">
				<path class="st84" d="M1539.78,297.94c0.17-0.3,0.5-0.47,0.84-0.44c0.12,0.01,0.23,0.04,0.33,0.1c0.19,0.1,0.35,0.27,0.43,0.48
					 M1540.36,300.47"/>
			</g>
			<g id="triangle36_591_" class="st8">
				<line class="st84" x1="677.97" y1="205.62" x2="677.15" y2="207.21"/>
			</g>
			<g id="triangle36_589_" class="st8">
				<path class="st84" d="M1945.07,296.26c0.19-0.25,0.5-0.38,0.81-0.35c0.11,0.01,0.21,0.04,0.31,0.09
					c0.18,0.09,0.32,0.24,0.4,0.43 M1945.57,298.53"/>
			</g>
			<g id="triangle36_588_" class="st8">
				<path class="st84" d="M1539.85,298.93c-0.21-0.27-0.25-0.63-0.1-0.93c0.15-0.31,0.46-0.5,0.79-0.5l405.23-1.59
					c0.15,0,0.29,0.03,0.41,0.1c0.16,0.09,0.3,0.22,0.39,0.39c0.15,0.3,0.12,0.66-0.09,0.93 M1943.98,297.69l-401.62,1.57"/>
			</g>
			<g id="triangle36_587_" class="st8">
				<path class="st84" d="M1539.71,298.69c-0.15-0.41,0.02-0.87,0.4-1.08c0.27-0.15,0.58-0.15,0.84-0.01
					c0.11,0.06,0.21,0.14,0.29,0.24 M1543.31,303.36"/>
			</g>
			<g id="triangle36_586_" class="st8">
				<path class="st84" d="M761.73,43.37l75.33,82.05l-120.78,5.99l-0.94,1.82l123.7-6.14c0.34-0.02,0.65-0.23,0.78-0.55
					c0.13-0.32,0.07-0.68-0.17-0.94L762.6,41.69L761.73,43.37z"/>
			</g>
			<g id="triangle36_585_" class="st8">
				<path class="st84" d="M818.16-65.92l234.22-28.8L839.55,124.37L807.18-44.67l-1.32,2.55l32.26,168.49
					c0.06,0.32,0.29,0.58,0.62,0.68c0.32,0.09,0.66,0.01,0.89-0.23l215.77-222.11c0.26-0.27,0.33-0.68,0.16-1.01
					c-0.09-0.17-0.22-0.31-0.39-0.39c-0.16-0.08-0.33-0.11-0.52-0.09L819.14-67.83L818.16-65.92z"/>
			</g>
			<g id="triangle36_584_" class="st8">
				<path class="st84" d="M901.66-227.66l151.03,131.12L819.14-67.83l-0.99,1.91l236.72-29.1c0.35-0.04,0.64-0.29,0.74-0.62
					c0.1-0.34,0-0.7-0.27-0.93L902.5-229.28L901.66-227.66z"/>
			</g>
			<g id="triangle36_583_" class="st8">
				<path class="st84" d="M805.87-42.11l31.68,165.42L762.6,41.69l-0.87,1.68l76.61,83.44c0.27,0.29,0.7,0.37,1.05,0.19
					c0.35-0.18,0.55-0.57,0.47-0.96L807.18-44.67L805.87-42.11z"/>
			</g>
		</g>
		<g>
			<linearGradient id="SVGID_81_" gradientUnits="userSpaceOnUse" x1="1269.6948" y1="256.5541" x2="1269.6948" y2="181.8238">
				<stop  offset="0" style="stop-color:#7F8382"/>
				<stop  offset="1" style="stop-color:#506A62"/>
			</linearGradient>
			<line class="st85" x1="1150.12" y1="183.74" x2="1389.27" y2="254.64"/>
			<linearGradient id="SVGID_82_" gradientUnits="userSpaceOnUse" x1="1265.6986" y1="185.5911" x2="1265.6986" y2="86.8594">
				<stop  offset="0" style="stop-color:#7F8382"/>
				<stop  offset="1" style="stop-color:#506A62"/>
			</linearGradient>
			<line class="st86" x1="1381.28" y1="88.71" x2="1150.12" y2="183.74"/>
			<linearGradient id="SVGID_83_" gradientUnits="userSpaceOnUse" x1="1227.6056" y1="185.0422" x2="1227.6056" y2="1.4598">
				<stop  offset="0" style="stop-color:#7F8382"/>
				<stop  offset="1" style="stop-color:#506A62"/>
			</linearGradient>
			<line class="st87" x1="1305.09" y1="2.76" x2="1150.12" y2="183.74"/>
			<linearGradient id="SVGID_84_" gradientUnits="userSpaceOnUse" x1="1123.3317" y1="184.349" x2="1123.3317" y2="15.1365">
				<stop  offset="0" style="stop-color:#7F8382"/>
				<stop  offset="1" style="stop-color:#506A62"/>
			</linearGradient>
			<line class="st88" x1="1096.54" y1="15.74" x2="1150.12" y2="183.74"/>
			<linearGradient id="SVGID_85_" gradientUnits="userSpaceOnUse" x1="1039.6825" y1="181.542" x2="1039.6825" y2="97.6551">
				<stop  offset="0" style="stop-color:#7F8382"/>
				<stop  offset="1" style="stop-color:#506A62"/>
			</linearGradient>
			<line class="st89" x1="928.86" y1="99.54" x2="1150.51" y2="179.66"/>
			<linearGradient id="SVGID_86_" gradientUnits="userSpaceOnUse" x1="1031.2299" y1="187.3413" x2="1031.2299" y2="181.7414">
				<stop  offset="0" style="stop-color:#7F8382"/>
				<stop  offset="1" style="stop-color:#506A62"/>
			</linearGradient>
			<line class="st90" x1="912.34" y1="185.34" x2="1150.12" y2="183.74"/>
		</g>
		<g>
			<g>
				<path class="st91" d="M1378.01,96.92c4.41,2.28,9.83,0.55,12.11-3.86c2.28-4.41,0.55-9.83-3.86-12.11
					c-4.41-2.28-9.83-0.55-12.11,3.86C1371.87,89.23,1373.6,94.65,1378.01,96.92z"/>
				<path class="st92" d="M1378.01,96.92c-4.41-2.28-6.14-7.7-3.86-12.11c2.28-4.41,7.7-6.14,12.11-3.86
					c4.41,2.28,6.14,7.7,3.86,12.11C1387.85,97.47,1382.42,99.2,1378.01,96.92 M1376.39,100.08c6.14,3.17,13.72,0.75,16.89-5.39
					c3.17-6.14,0.75-13.72-5.39-16.89s-13.72-0.75-16.89,5.39C1367.83,89.33,1370.24,96.91,1376.39,100.08L1376.39,100.08z"/>
			</g>
			<g>
				<path class="st91" d="M1296.05,14.07c5.72,2.95,12.75,0.71,15.7-5.01c2.95-5.72,0.71-12.75-5.01-15.7
					c-5.72-2.95-12.75-0.71-15.7,5.01C1288.09,4.08,1290.33,11.11,1296.05,14.07z"/>
				<path class="st92" d="M1296.05,14.07c-5.72-2.95-7.96-9.98-5.01-15.7c2.95-5.72,9.98-7.96,15.7-5.01
					c5.72,2.95,7.96,9.98,5.01,15.7C1308.8,14.78,1301.77,17.02,1296.05,14.07 M1294.42,17.22c7.45,3.85,16.64,0.91,20.48-6.53
					s0.91-16.64-6.53-20.48c-7.45-3.85-16.64-0.91-20.48,6.53S1286.98,13.37,1294.42,17.22L1294.42,17.22z"/>
			</g>
			<g>
				<linearGradient id="SVGID_87_" gradientUnits="userSpaceOnUse" x1="1144.3754" y1="183.321" x2="1157.4241" y2="183.321">
					<stop  offset="0" style="stop-color:#7F8382"/>
					<stop  offset="0.0324" style="stop-color:#787F7D"/>
					<stop  offset="0.1418" style="stop-color:#667570"/>
					<stop  offset="0.2781" style="stop-color:#596E68"/>
					<stop  offset="0.4692" style="stop-color:#526B64"/>
					<stop  offset="1" style="stop-color:#506A62"/>
				</linearGradient>
				<path class="st93" d="M1147.91,189.12c3.2,1.65,7.14,0.4,8.79-2.8c1.65-3.2,0.4-7.14-2.8-8.79c-3.2-1.65-7.14-0.4-8.79,2.8
					C1143.45,183.53,1144.71,187.46,1147.91,189.12z"/>
				<linearGradient id="SVGID_88_" gradientUnits="userSpaceOnUse" x1="1140.8296" y1="183.321" x2="1160.97" y2="183.321">
					<stop  offset="0" style="stop-color:#7F8382"/>
					<stop  offset="0.0324" style="stop-color:#787F7D"/>
					<stop  offset="0.1418" style="stop-color:#667570"/>
					<stop  offset="0.2781" style="stop-color:#596E68"/>
					<stop  offset="0.4692" style="stop-color:#526B64"/>
					<stop  offset="1" style="stop-color:#506A62"/>
				</linearGradient>
				<path class="st94" d="M1147.91,189.12c-3.2-1.65-4.46-5.59-2.8-8.79c1.65-3.2,5.59-4.46,8.79-2.8c3.2,1.65,4.46,5.59,2.8,8.79
					C1155.04,189.51,1151.11,190.77,1147.91,189.12 M1146.28,192.27c4.93,2.55,11.02,0.61,13.57-4.33
					c2.55-4.93,0.61-11.02-4.33-13.57c-4.93-2.55-11.02-0.61-13.57,4.33C1139.4,183.64,1141.34,189.72,1146.28,192.27
					L1146.28,192.27z"/>
			</g>
			<g>
				<path class="st91" d="M897.76,195.5c6.2,3.2,13.81,0.77,17.01-5.43c3.2-6.2,0.77-13.81-5.43-17.01
					c-6.2-3.2-13.81-0.77-17.01,5.43C889.14,184.68,891.57,192.3,897.76,195.5z"/>
				<path class="st92" d="M897.76,195.5c-6.2-3.2-8.63-10.82-5.43-17.01c3.2-6.2,10.82-8.63,17.01-5.43
					c6.2,3.2,8.63,10.82,5.43,17.01C911.58,196.27,903.96,198.7,897.76,195.5 M896.14,198.65c7.93,4.09,17.7,0.97,21.79-6.95
					c4.09-7.93,0.97-17.7-6.95-21.79c-7.93-4.09-17.7-0.97-21.79,6.95C885.09,184.78,888.21,194.56,896.14,198.65L896.14,198.65z"/>
			</g>
			<g>
				<path class="st92" d="M972.18,305.68"/>
			</g>
			<g>
				<path class="st91" d="M1936.89,292.21c-2.54,4.91-0.61,10.95,4.3,13.48"/>
				<path class="st92" d="M1941.19,305.69 M1941.19,305.69c-4.91-2.54-6.84-8.57-4.3-13.48 M1933.73,290.58
					c-3.43,6.64-0.81,14.83,5.83,18.26l0,0"/>
			</g>
			<g>
				<path class="st91" d="M1536.36,306.49c4.48,2.31,9.98,0.56,12.3-3.92c2.31-4.48,0.56-9.98-3.92-12.3
					c-4.48-2.31-9.98-0.56-12.3,3.92C1530.13,298.68,1531.88,304.18,1536.36,306.49z"/>
				<path class="st92" d="M1536.36,306.49c-4.48-2.31-6.23-7.82-3.92-12.3c2.31-4.48,7.82-6.23,12.3-3.92
					c4.48,2.31,6.23,7.82,3.92,12.3C1546.35,307.05,1540.84,308.81,1536.36,306.49 M1534.73,309.65c6.21,3.21,13.87,0.76,17.08-5.45
					c3.21-6.21,0.76-13.87-5.45-17.08c-6.21-3.21-13.87-0.76-17.08,5.45C1526.08,298.78,1528.52,306.44,1534.73,309.65
					L1534.73,309.65z"/>
			</g>
			<g>
				<path class="st91" d="M1051.66-89.87c3.33,1.72,7.43,0.41,9.15-2.92c1.72-3.33,0.41-7.43-2.92-9.15
					c-3.33-1.72-7.43-0.41-9.15,2.92C1047.02-95.69,1048.32-91.59,1051.66-89.87z"/>
				<path class="st92" d="M1051.66-89.87c-3.33-1.72-4.64-5.82-2.92-9.15c1.72-3.33,5.82-4.64,9.15-2.92
					c3.33,1.72,4.64,5.82,2.92,9.15C1059.09-89.45,1054.99-88.15,1051.66-89.87 M1050.03-86.72c5.07,2.62,11.32,0.62,13.93-4.44
					s0.62-11.32-4.44-13.93c-5.07-2.62-11.32-0.62-13.93,4.44C1042.97-95.58,1044.96-89.33,1050.03-86.72L1050.03-86.72z"/>
			</g>
			<g>
				
					<ellipse transform="matrix(0.9527 -0.3039 0.3039 0.9527 1.332 260.9769)" class="st91" cx="839" cy="126.21" rx="8.45" ry="8.45"/>
				<path class="st92" d="M835.12,133.72c-4.15-2.14-5.78-7.24-3.63-11.39c2.14-4.15,7.24-5.78,11.39-3.63
					c4.15,2.14,5.78,7.24,3.63,11.39C844.37,134.24,839.27,135.86,835.12,133.72 M833.49,136.87c5.88,3.04,13.14,0.72,16.17-5.16
					c3.04-5.88,0.72-13.13-5.16-16.17c-5.88-3.04-13.14-0.72-16.17,5.16S827.61,133.84,833.49,136.87L833.49,136.87z"/>
			</g>
		</g>
	</g>
</g>
</svg>
