<svg id="Layer_1" enable-background="new 0 0 510.629 510.629" height="512" viewBox="0 0 510.629 510.629" width="512" xmlns="http://www.w3.org/2000/svg"><g><path d="m255.315 90c-49.626 0-90 40.374-90 90 4.944 119.397 175.074 119.362 180-.001 0-49.625-40.374-89.999-90-89.999zm0 135c-24.813 0-45-20.188-45-45 2.472-59.699 87.537-59.681 90 0 0 24.812-20.186 45-45 45z"/><path d="m255.315 165c-8.271 0-15 6.729-15 15 .824 19.9 29.18 19.894 30 0 0-8.271-6.728-15-15-15z"/><path d="m255.315 0c-99.252 0-180 80.748-180 180-6.851 67.814 128.484 266.284 168.103 315.136l11.897 15.493 11.898-15.493c40.257-49.694 174.963-247.575 168.099-315.137.003-99.251-80.745-179.999-179.997-179.999zm0 300c-66.169 0-120-53.832-120-120 6.592-159.196 233.432-159.15 240 .001 0 66.167-53.832 119.999-120 119.999z"/></g></svg>